<svg width="1024" height="455" viewBox="0 0 1024 455" fill="none" xmlns="http://www.w3.org/2000/svg">
<g filter="url(#filter0_n_10_1544)">
<path d="M277.449 0.0441991C280.723 -0.0915249 284.484 0.111166 287.812 0.302989C304.039 1.24401 325.869 -0.296016 322.49 23.0395C319.113 46.3605 314.236 69.5421 310.201 92.8233C303.586 133.135 296.583 173.38 289.191 213.556C286.717 226.98 282.967 252.008 278.144 263.278C266.993 275.673 230.628 270.555 216.743 269.319C201.94 268.001 186.634 266.284 182.513 253.215C178.61 240.842 174.013 181.21 164.29 175.416C156.425 180.61 149.149 242.563 145.935 255.414C144.921 259.465 142.92 262.971 139.174 265.05C131.452 269.335 65.2477 270.767 55.6348 267.701C46.6209 260.133 41.6787 228.739 38.9335 216.598C33.5986 193.603 28.4556 170.564 23.5026 147.484C19.6661 130.375 -4.21228 49.008 0.650264 37.6778C2.18485 34.1019 5.52727 32.0697 9.01809 30.7359C26.2008 24.1759 74.39 16.3057 91.6071 24.0221C102.4 35.5098 96.513 124.429 109.327 134.368C121.528 130.189 125.73 19.6826 136.032 8.4229C138.555 5.6668 191.196 4.95199 195.237 15.9818C200.277 29.7406 208.979 130.261 218.71 132.346C220.033 131.088 222.056 128.459 222.23 126.648C224.564 103.613 226.354 80.1395 228.777 57.137C230.129 44.3174 229.559 15.6326 237.25 6.38884C247.502 0.943591 265.404 0.768061 277.449 0.0441991Z" fill="#6F0400"/>
<path fill-rule="evenodd" clip-rule="evenodd" d="M799.109 111.908C791.164 41.7584 744.39 -1.28598 671.959 4.06698C581.138 12.5941 558.463 83.3208 564.505 163.219C570.475 242.161 618.997 274.607 693.675 268.678C724.757 264.65 754.861 255.254 774.373 228.79C798.414 196.18 803.531 150.96 799.109 111.908ZM672.154 87.0631C675.57 86.7723 679.318 86.9023 682.874 87.0257C683.567 87.0497 684.252 87.0735 684.927 87.0938C700.725 96.3792 703.521 116.372 703.608 133.283C703.615 134.702 703.631 136.174 703.648 137.691C703.868 157.992 704.174 186.129 684.849 196.059C651.493 200.715 652.561 159.402 653.146 136.75L653.149 136.626C653.6 119.208 655.802 96.5927 672.154 87.0631Z" fill="#6F0400"/>
<path fill-rule="evenodd" clip-rule="evenodd" d="M509.456 27.0208C487.733 9.79107 450.854 1.86118 423.824 5.45877C396.489 8.11172 364.264 19.1488 346.781 41.7116C306.359 93.8748 303.784 203.965 356.745 248.993C380.94 269.563 415.849 272.032 446.115 270.112C477.478 266.281 506.699 257.56 527.032 231.325C552.141 198.931 556.763 149.645 551.741 110.149C547.604 77.6205 535.798 47.915 509.456 27.0208ZM423.209 88.7369C434.168 87.7977 443.367 89.8119 448.505 100.793C458.635 122.445 460.613 184.27 436.753 196.889C394.477 209.712 403.312 119.868 412.273 100.147C414.899 94.3686 418.072 91.8604 423.209 88.7369Z" fill="#6F0400"/>
<path d="M945.266 0.151423C961.444 -1.92063 1008.99 17.7214 1019.3 31.5905C1022.13 35.4089 1017.18 43.1343 1014.88 46.5491C1000.04 68.6016 983.719 89.7618 968.283 111.42C963.726 117.828 957.336 125.493 954.555 132.683C964.924 155.07 986.084 177.698 1002.24 196.291C1010.13 205.373 1017.92 212.744 1024 223.296C1022.41 239.312 964.339 277.776 949.875 269.969C939.106 264.156 918.756 229.107 911.745 217.728C907.676 211.119 901.239 195.127 895.164 190.69L893.546 191.128C890.991 195.934 891.43 203.095 891.684 208.406C892.587 226.751 895.45 240.121 894.818 259.46C878.24 266.487 827.216 276.976 811.976 266.152C808.858 254.958 810.054 228.448 809.895 215.468C809.558 187.814 810.137 159.647 809.699 131.976C809.201 100.479 806.785 68.7952 806.264 37.3126C806.132 29.276 806.331 19.7807 807.871 11.9214C827.294 1.96469 862.031 2.52569 883.272 3.11564C892.836 4.74433 897.078 5.09176 898.016 15.0666C898.931 24.8007 892.672 74.0378 897.107 77.9177C904.436 74.9082 926.089 12.2019 944.384 0.697915L945.266 0.151423Z" fill="#6F0400"/>
<path d="M348.633 283.936C350.038 283.671 355.336 283.531 357.051 283.448C365.637 292.258 378.085 314.354 385.106 325.126C388.765 330.739 391.95 337.247 396.743 342.228L397.969 341.984C403.762 332.861 393.96 298.772 398.36 289.457C400.916 284.047 444.12 281.42 450.195 286.05C453.55 292.445 450.82 361.425 450.998 374.19C451.132 387.706 451.52 401.22 452.161 414.721C453.959 451.596 460.427 455.072 420.417 450.803C412.678 449.211 407.869 439.497 402.811 433.618C390.975 419.86 380.375 403.741 366.996 391.44C366.608 406.016 369.006 418.815 370.253 433.201C370.561 436.757 370.386 445.068 367.569 447.354C360.586 451.545 346.455 451.093 338.649 450.892C320.286 450.422 316.113 450.741 315.639 431.93C315.012 407.012 313.052 381.822 313.1 357.136C313.135 338.824 308.367 309.083 311.906 292.553C316.594 287.659 341.136 284.713 348.633 283.936Z" fill="#6F0400"/>
<path d="M712.042 282.568C720.155 282.781 736.445 282.399 742.313 287.649C744.997 300.416 742.545 317.45 742.539 330.749C742.524 361.437 741.674 392.12 741.989 422.818C742.068 430.413 741.819 440.671 740.382 448.042C734.655 453.622 695.341 452.317 689.594 446.337C679.773 436.118 698.459 398.584 677.473 397.024C644.568 394.579 672.712 432.164 660.767 447.163C656.607 451.914 627.816 449.791 620.73 449.54C610.82 449.503 605.716 449.32 605.421 437.971C604.155 389.353 600.27 339.219 601.225 290.662C609.508 286.242 615.724 284.862 624.608 283.678C629.686 282.797 655.735 281.943 658.041 285.515C663.704 294.284 657.442 318.394 657.857 329.102C657.75 331.213 657.57 333.371 657.656 335.477C658.271 346.717 663.754 347.634 673.208 347.877C694.293 348.419 685.927 320.861 684.626 306.76C682.198 280.419 690.247 283.137 712.042 282.568Z" fill="#6F0400"/>
<path fill-rule="evenodd" clip-rule="evenodd" d="M238.386 284.863C237.057 284.947 235.88 285.021 234.923 285.066C227.005 285.684 195.279 288.237 190.792 293.375C188.357 296.164 186.683 300.357 185.367 303.761C179.814 318.12 139.576 438.271 140.04 443.967C140.18 445.677 140.934 447.411 142.396 448.392C149.066 452.869 182.102 455.965 190.141 453.763C193.918 452.73 197.044 450.598 198.935 447.087C200.24 444.665 200.825 441.026 201.431 437.252C202.469 430.793 203.57 423.94 208.455 422.128C209.424 421.77 210.549 421.601 211.603 421.442C211.801 421.412 211.998 421.383 212.19 421.352C219.387 420.184 236.021 419.063 242.098 422.968C245.668 425.262 246.001 430.813 246.339 436.468C246.679 442.135 247.024 447.905 250.641 450.606C257.452 455.692 266.453 454.518 274.595 453.456C275.779 453.301 276.945 453.149 278.083 453.019C279.099 452.859 280.285 452.695 281.586 452.514C289.728 451.383 302.399 449.624 306.49 444.425C307.637 442.967 306.982 437.72 306.598 435.86C303.55 421.063 299.153 406.147 294.786 391.332C292.661 384.123 290.542 376.938 288.59 369.802C286.304 361.444 283.973 353.118 281.643 344.797C277.253 329.122 272.87 313.466 268.804 297.656C268.248 295.489 265.108 287.035 263.751 286.274C258.919 283.565 246.094 284.376 238.386 284.863ZM224.524 339.108C225.557 339.213 225.921 339.455 226.624 339.924C226.765 340.017 226.919 340.12 227.095 340.233C231.636 346.861 234.248 361.673 235.678 369.782L235.691 369.854C237.227 378.577 234.015 379.566 226.233 380.388C225.574 380.328 224.899 380.285 224.22 380.241C220.29 379.989 216.22 379.727 214.148 376.204C213.514 369.524 221.176 344.459 224.524 339.108Z" fill="#6F0400"/>
<path d="M950.356 281.114C962.187 280.149 1005.47 285.266 1012.46 298.914C1015.21 304.298 1011.17 327.51 1008.18 333.644C1004.26 341.676 992.597 335.803 986.307 334.205C977.216 331.044 947.634 326.086 942.543 336.64C944.958 343.639 965.059 348.843 972.224 351.404C993.848 359.128 1019.14 367.3 1021.74 394.214C1025.46 432.683 988.283 449.834 955.72 452.431C954.56 452.554 953.397 452.646 952.233 452.712C936.235 453.608 901.455 448.864 888.218 437.991C885.471 435.734 883.334 430.005 883.737 425.699C884.55 417.023 883.128 398.788 888.637 391.889C889.613 390.618 892.64 390.14 894.032 390.483C907.491 393.803 919.375 398.482 933.616 398.397C938.566 398.367 954.296 399.583 954.286 391.639C943.398 376.603 886.857 379.086 882.496 339.643C881.197 327.523 884.812 315.389 892.529 305.956C905.594 289.993 930.546 283.158 950.356 281.114Z" fill="#6F0400"/>
<path d="M806.395 283.304C825.943 283.159 848.865 282.929 867.253 286.248C878.731 288.32 872.023 326.266 868.717 328.948C854.277 335.441 834.106 325.314 818.101 329.957C812.658 331.535 808.177 337.308 811.723 341.907C820.799 353.68 853.744 334.115 859.735 351.378C861.832 357.419 857.144 374.298 854.309 380.018C844.247 378.928 835.596 378.065 824.748 377.953C815.173 376.279 804.654 387.479 814.619 393.965C825.402 400.982 855.199 394.818 866.016 392.891C867.79 392.591 870.47 392.193 872.079 393.089C874.115 394.222 875.033 396.642 875.59 398.776C877.419 405.797 876.1 441.713 872.249 447.115C870.926 448.971 864.447 449.29 862.296 449.442C846.532 450.558 830.129 449.761 814.301 449.702C799.13 449.646 782.283 450.878 767.369 448.395C764.43 447.905 760.662 446.578 758.454 444.507C755.735 441.955 755.115 438.905 754.928 435.359C754.323 423.886 755.316 412.144 755.167 400.618C754.973 385.635 750.683 293.104 755.781 288.02C761.283 282.532 796.797 283.465 806.395 283.304Z" fill="#6F0400"/>
<path d="M546.601 281.814C555.916 280.122 587.38 283.283 589.767 291.746C592.107 300.041 586.027 336.84 582.439 345.254C566.901 346.367 551.589 340.366 537.341 349.643C531.23 353.624 526.396 359.382 524.902 366.61C523.33 374.207 524.535 381.978 528.86 388.483C543.567 410.6 575.276 389.146 586.086 391.911C587.761 392.339 588.741 393.262 589.584 394.749C593.367 401.427 592.648 426.509 590.223 434.216C588.05 441.12 582.165 443.686 576.223 446.765C551.34 459.27 511.233 454.969 489.52 437.963C453.038 409.391 451.892 350.085 479.372 314.969C496.677 292.856 519.862 285.131 546.601 281.814Z" fill="#6F0400"/>
<path d="M40.1918 290.978C46.4445 290.242 63.1287 289.073 68.4436 292.583C76.3021 297.771 66.0491 376.445 69.5418 388.993C72.5732 399.887 125.875 373.265 137.73 379.221C144.39 386.248 135.813 437.003 129.44 446.555C127.989 448.729 120.403 449.203 117.851 449.487C94.8999 449.962 71.2094 449.397 48.1613 449.144C36.7147 449.019 21.8625 449.373 10.721 447.504C9.95466 447.376 9.27693 446.378 9.16867 445.963C3.54727 424.321 -2.68716 311.348 1.22167 298.128C5.25985 293.699 33.222 291.517 40.1918 290.978Z" fill="#6F0400"/>
</g>
<defs>
<filter id="filter0_n_10_1544" x="0" y="0" width="1024" height="454.489" filterUnits="userSpaceOnUse" color-interpolation-filters="sRGB">
<feFlood flood-opacity="0" result="BackgroundImageFix"/>
<feBlend mode="normal" in="SourceGraphic" in2="BackgroundImageFix" result="shape"/>
<feTurbulence type="fractalNoise" baseFrequency="0.26315790414810181 0.26315790414810181" stitchTiles="stitch" numOctaves="3" result="noise" seed="2297" />
<feComponentTransfer in="noise" result="coloredNoise1">
<feFuncR type="linear" slope="2" intercept="-0.5" />
<feFuncG type="linear" slope="2" intercept="-0.5" />
<feFuncB type="linear" slope="2" intercept="-0.5" />
<feFuncA type="discrete" tableValues="1 1 1 1 1 1 1 1 1 1 1 1 1 1 1 1 1 1 1 1 1 1 1 1 1 1 1 1 1 1 1 1 1 1 1 1 1 1 1 1 1 1 1 1 1 1 1 1 1 1 1 0 0 0 0 0 0 0 0 0 0 0 0 0 0 0 0 0 0 0 0 0 0 0 0 0 0 0 0 0 0 0 0 0 0 0 0 0 0 0 0 0 0 0 0 0 0 0 0 0 "/>
</feComponentTransfer>
<feComposite operator="in" in2="shape" in="coloredNoise1" result="noise1Clipped" />
<feComponentTransfer in="noise1Clipped" result="color1">
<feFuncA type="table" tableValues="0 0.15" />
</feComponentTransfer>
<feMerge result="effect1_noise_10_1544">
<feMergeNode in="shape" />
<feMergeNode in="color1" />
</feMerge>
</filter>
</defs>
</svg>
