<svg width="720" height="750" viewBox="0 0 720 750" fill="none" xmlns="http://www.w3.org/2000/svg">
<path d="M652.544 302.311C653.738 303.958 653.883 304.039 654.12 305.99L653.64 306.938C652.153 307.381 650.455 307.814 649.028 308.325L650.149 310.15C648.473 309.218 648.174 309.431 647.439 308.017C647.986 305.723 650.639 303.959 652.544 302.311Z" fill="#D1302D"/>
<path d="M71.6743 84.2128L73.0133 85.2028C74.4013 88.6998 72.3003 90.0318 69.5773 91.9508C65.8193 88.7838 68.7653 86.2288 71.6743 84.2128Z" fill="#C02A25"/>
<path d="M26.2383 174.012C29.8443 173.556 40.7233 173.626 43.1363 176.225C40.9583 178.931 33.1993 179.086 31.1813 185.025C29.1973 190.862 31.0933 196.068 33.2773 201.299C33.6473 201.92 33.4513 201.507 33.6753 202.613C28.1393 203.085 1.62132 182.584 26.2383 174.012Z" fill="#FEFEFE"/>
<path d="M28.8833 158.076C32.5233 157.732 35.5533 158.327 39.0523 159.112C40.6793 161.932 41.9663 165.395 43.2103 168.449C36.7893 167.049 34.5453 166.701 28.0253 167.056C23.2473 168.083 19.9343 170.64 17.0233 170.788C16.3163 170.328 15.9253 170.359 15.8303 169.509C14.9603 161.749 22.9003 159.081 28.8833 158.076Z" fill="#FEFEFE"/>
<path d="M38.0663 142.331C39.8243 142.447 39.1553 142.088 40.2433 143.222C40.9993 146.11 40.6023 149.264 40.4523 152.305L35.7603 151.858C32.8453 151.455 31.2413 151.273 31.4313 147.909C33.3613 144.485 34.6183 144.104 38.0663 142.331Z" fill="#FEFEFE"/>
<path d="M55.8023 136.035L56.4173 136.242C64.7803 138.974 62.8033 134.087 71.0373 141.172C66.5193 140.071 58.7153 138.386 54.7083 136.58L55.8023 136.035Z" fill="#E9CECB"/>
<path d="M54.7083 136.58C52.1143 135.449 48.8873 134.288 47.8513 131.511L48.2803 130.738C52.0983 130.574 53.6243 133.328 55.8023 136.035L54.7083 136.58Z" fill="#FEFEFE"/>
<path d="M664.014 481.162L666.209 481.539C668.653 484.324 661.06 508.079 657.878 511.324C656.942 510.834 656.383 510.482 655.489 509.924C652.571 504.72 660.568 485.712 664.014 481.162Z" fill="#D1302D"/>
<path d="M676.484 484.594C680.631 485.146 680.372 489.692 680.149 493.114C679.73 499.543 679.74 508.387 675.853 513.743C674.162 512.829 673.101 512.355 672.587 510.322C671.084 504.383 673.72 489.539 676.484 484.594Z" fill="#D1302D"/>
<path d="M651.41 478.751C652.119 479.02 654.267 479.801 654.002 480.797C652.054 488.12 645.444 500.296 640.621 505.852C640.317 505.657 639.474 505.136 639.295 504.922C634.789 499.545 647.893 481.399 651.41 478.751Z" fill="#D1302D"/>
<path d="M645.057 386.28C645.271 386.502 645.485 386.723 645.699 386.944C652.36 398.674 653.904 414.841 650.765 427.275L644.975 428.788C643.016 429.428 640.619 430.535 638.683 431.362C644.769 412.379 645.204 406.028 645.057 386.28Z" fill="#D1302D"/>
<path d="M652.544 302.311C653.738 303.958 653.883 304.039 654.12 305.99L653.64 306.938C652.153 307.381 650.455 307.814 649.028 308.325L650.149 310.15C648.473 309.218 648.174 309.431 647.439 308.017C647.986 305.723 650.639 303.959 652.544 302.311Z" fill="#D1302D"/>
<path d="M71.6743 84.2128L73.0133 85.2028C74.4013 88.6998 72.3003 90.0318 69.5773 91.9508C65.8193 88.7838 68.7653 86.2288 71.6743 84.2128Z" fill="#C02A25"/>
<path d="M26.2383 174.012C29.8443 173.556 40.7233 173.626 43.1363 176.225C40.9583 178.931 33.1993 179.086 31.1813 185.025C29.1973 190.862 31.0933 196.068 33.2773 201.299C33.6473 201.92 33.4513 201.507 33.6753 202.613C28.1393 203.085 1.62132 182.584 26.2383 174.012Z" fill="#FEFEFE"/>
<path d="M28.8833 158.076C32.5233 157.732 35.5533 158.327 39.0523 159.112C40.6793 161.932 41.9663 165.395 43.2103 168.449C36.7893 167.049 34.5453 166.701 28.0253 167.056C23.2473 168.083 19.9343 170.64 17.0233 170.788C16.3163 170.328 15.9253 170.359 15.8303 169.509C14.9603 161.749 22.9003 159.081 28.8833 158.076Z" fill="#FEFEFE"/>
<path d="M38.0663 142.331C39.8243 142.447 39.1553 142.088 40.2433 143.222C40.9993 146.11 40.6023 149.264 40.4523 152.305L35.7603 151.858C32.8453 151.455 31.2413 151.273 31.4313 147.909C33.3613 144.485 34.6183 144.104 38.0663 142.331Z" fill="#FEFEFE"/>
<path d="M55.8023 136.035L56.4173 136.242C64.7803 138.974 62.8033 134.087 71.0373 141.172C66.5193 140.071 58.7153 138.386 54.7083 136.58L55.8023 136.035Z" fill="#E9CECB"/>
<path d="M54.7083 136.58C52.1143 135.449 48.8873 134.288 47.8513 131.511L48.2803 130.738C52.0983 130.574 53.6243 133.328 55.8023 136.035L54.7083 136.58Z" fill="#FEFEFE"/>
<path d="M664.014 481.162L666.209 481.539C668.653 484.324 661.06 508.079 657.878 511.324C656.942 510.834 656.383 510.482 655.489 509.924C652.571 504.72 660.568 485.712 664.014 481.162Z" fill="#D1302D"/>
<path d="M676.484 484.594C680.631 485.146 680.372 489.692 680.149 493.114C679.73 499.543 679.74 508.387 675.853 513.743C674.162 512.829 673.101 512.355 672.587 510.322C671.084 504.383 673.72 489.539 676.484 484.594Z" fill="#D1302D"/>
<path d="M651.41 478.751C652.119 479.02 654.267 479.801 654.002 480.797C652.054 488.12 645.444 500.296 640.621 505.852C640.317 505.657 639.474 505.136 639.295 504.922C634.789 499.545 647.893 481.399 651.41 478.751Z" fill="#D1302D"/>
<path d="M514.971 5.7328C518.235 3.7488 520.826 2.2858 524.532 1.1908C532.471 -1.0722 540.984 -0.0842032 548.193 3.9368C556.541 8.5418 559.697 14.5238 562.179 23.2008C565.732 25.2518 569.528 27.2538 573.005 29.3508C600.088 45.6928 626.417 70.9908 634.318 102.424C636.097 109.641 636.889 117.067 636.671 124.498C636.394 137.341 631.08 165.988 624.469 176.925C628.297 183.742 631.552 189.615 634.482 196.941C641.094 213.466 647.78 243.379 643.428 260.423C657.512 272.862 666.022 284.146 652.544 302.311C653.738 303.958 653.883 304.039 654.12 305.99L653.64 306.938C652.153 307.381 650.455 307.814 649.028 308.325L650.149 310.15C652.635 311.634 655.116 313.123 657.614 314.588C682.502 329.182 701.869 353.196 709.022 381.347C714.166 401.905 714.34 423.392 709.53 444.031C719.246 456.495 720.582 465.219 713.528 479.399C720.603 492.176 720.238 513.494 716.096 527.119C714.644 531.896 712.63 537.369 710.88 542.095C715.745 554.92 720.845 566.194 714.809 579.791C711.971 586.339 706.635 591.482 699.987 594.078C693.203 596.713 687.613 596.09 680.893 594.134C667.168 606.826 650.062 609.052 636.718 594.082L636.234 593.532C627.19 595.781 619.544 596.726 611.111 591.608C595.597 582.192 594.086 559.135 596.421 543.275C580.12 531.217 575.946 517.925 584.745 499.219C583.035 497.478 581.755 495.986 581.475 493.483L582.361 492.741C585.039 492.252 585.339 492.874 587.773 493.962C600.196 478.746 609.316 465.309 626.436 455.176L627.302 448.135C623.186 451.972 617.952 456.818 613.18 459.686C587.997 474.819 555.262 482.839 526.504 486.715C526.749 515.897 523.532 549.162 520.859 578.417C519.878 589.163 518.623 605.606 516.594 615.898C529.626 622.305 535.22 633.908 533.956 648.133C548.278 653.667 551.479 651.738 565.916 652.565C584.042 653.603 605.187 665.754 612.423 682.993C619.913 700.837 623.903 730.557 601.239 739.483C558.012 756.507 507.515 747.722 465.421 731.277C456.623 727.762 437.571 720.09 434.43 711.449C433.226 708.138 432.341 703.784 431.831 700.235C431.488 699.905 430.805 698.053 430.582 697.514C428.943 708.141 428.412 715.453 418.202 721.486C407.671 727.709 397.135 731.943 385.627 735.929C351.199 747.853 314.063 753.726 278.077 745.573C268.606 743.429 252.954 738.579 248.139 729.641C242.867 719.856 243.657 701.674 246.866 691.348C251.907 675.128 259.545 667.017 274.021 659.207C273.796 658.458 273.72 658.135 273.56 657.386C275.702 653.823 281.218 653.787 284.659 655.292C289.787 653.953 294.837 652.849 300.157 652.565C310.742 652.001 319.108 653.789 328.664 647.911C327.167 634.153 331.188 626.712 342.153 618.843C341.325 615.87 341.119 610.119 341.501 606.969C341.8 604.511 342.129 604.517 343.834 603.189C343.642 599.482 342.3 591.239 341.798 587.246C340.572 577.364 339.483 567.465 338.53 557.554C335.891 529.703 334.58 501.743 334.602 473.767C275.892 455.93 226.76 435.574 240.597 363.246C235.476 364.535 230.303 365.603 225.091 366.447C212.303 368.44 202.452 368.019 189.811 365.418C147.074 356.626 121.957 323.801 115.735 281.857C103.726 276.368 99.9203 270.088 98.3403 257.222C85.2753 251.89 77.9993 244.763 66.2053 238.165C50.6043 229.437 33.5433 222.484 18.1193 213.316C7.8343 207.203 -2.03869 195.495 0.859308 182.691C2.00031 176.873 -0.833695 170.583 0.253305 163.652C0.754306 160.255 2.02532 157.017 3.97032 154.187C7.83432 148.613 13.1343 146.772 14.6713 144.822C21.3803 136.317 18.1293 136.109 27.9113 129.171C27.6303 127.783 27.3803 126.389 27.1603 124.989C26.2453 118.899 28.5053 115.642 31.8543 111.124C32.4033 95.9708 34.6373 85.3368 44.9413 73.3918C85.5183 26.3548 185.681 39.2838 191.508 109.442C198.738 119.036 197.257 122.696 192.377 132.864C194.554 138.836 193.563 142.942 192.724 149.143C209.482 151.456 221.638 160.96 219.925 179.729C218.478 195.585 202.313 197.748 194.565 208.385C191.807 212.172 191.454 220.927 190.163 225.584C189.343 228.598 188.458 231.093 187.265 234.101C197.377 250.574 190.534 264.824 177.09 275.975C184.273 311.905 216.172 313.803 242.726 296.351C230.261 285.706 221.335 268.496 234.748 253.617C237.94 250.075 242.518 248.091 246.755 246C242.2 221.827 250.868 193.109 263.023 172.184C267.263 164.887 272.275 158.374 277.539 151.817C268.932 147.847 258.622 144.737 252.404 137.603C225.992 107.3 256.945 77.8188 287.67 72.0628C316.366 66.6878 338.145 66.7128 365.651 66.5158C377.305 43.9138 386.308 28.8188 409.334 15.2198C439.369 -2.5172 481.864 -2.8662 514.971 5.7328Z" fill="#FEFEFE"/>
<path d="M394.621 486.323C402.718 486.611 414.911 488.194 423.322 488.876C437.504 490.045 451.734 490.54 465.963 490.359C466.343 515.077 462.805 540.975 461.24 565.64C460.211 581.858 457.602 598.02 456.447 614.301C438.758 622.015 430.365 635.496 438.009 654.653C434.427 666.635 432.824 672.321 431.858 684.896L430.409 685.488C429.575 676.499 427.886 663.994 424.775 655.776C432.029 635.81 424.015 622.374 405.631 614.289C405.058 603.802 402.501 589.765 401.479 578.8C398.721 549.211 394.723 515.952 394.621 486.323Z" fill="#E12A28"/>
<path d="M342.153 618.843C341.325 615.87 341.119 610.119 341.501 606.969C341.8 604.511 342.129 604.517 343.834 603.189L345.902 615.974C344.755 616.906 343.4 618.099 342.153 618.843Z" fill="#C02A25"/>
<path d="M584.745 499.219C583.035 497.478 581.755 495.986 581.475 493.483L582.361 492.741C585.039 492.252 585.339 492.874 587.773 493.962L584.745 499.219Z" fill="#D1302D"/>
<path d="M274.021 659.207C273.796 658.458 273.72 658.135 273.56 657.386C275.702 653.823 281.218 653.787 284.659 655.292C280.29 656.439 278.177 657.37 274.021 659.207Z" fill="#D1302D"/>
<path d="M430.409 685.488L431.858 684.896C431.677 688.258 432.078 698.442 431.831 700.235C431.488 699.905 430.805 698.053 430.582 697.514C430.317 694.4 430.442 688.794 430.409 685.488Z" fill="#9B564C"/>
<path d="M518.191 15.9828C519.675 14.5148 521.432 12.6868 523.262 11.7198C536.417 4.77081 553.558 12.6798 552.696 28.6018C558.625 32.0538 565.31 35.3058 570.946 38.9598C594.055 53.9428 617.544 75.7858 624.84 103.137C626.444 109.154 627.277 115.351 627.319 121.578C627.365 135.202 622.699 159.334 616.577 172.353C615.675 174.271 614.299 175.333 612.553 176.453C627.162 199.561 639.437 231.347 633.442 258.914C633.017 260.783 632.551 262.642 632.045 264.49C638.778 269.171 647.865 274.896 649.41 283.653C650.059 287.148 649.252 290.756 647.177 293.642C644.428 297.477 640.132 299.727 636.032 301.893C636.915 306.966 637.074 309.515 637.008 314.709C641.985 316.184 646.321 318.806 650.768 321.296C690.016 343.268 708.702 386.277 702.564 430.165C701.768 435.86 700.46 441.675 699.241 447.356C704.262 452.342 708.446 457.025 708.729 464.548C708.824 467.063 707.17 471.903 705.317 473.463C704.222 473.949 703.241 474.813 702.097 475.53L701.26 475.08C699.253 469.68 702.479 470.752 702.14 466.297C700.388 445.574 673.631 441.646 657.257 441.936C655.862 441.393 656.001 441.538 654.452 441.441C653.312 440.55 652.786 439.204 652.091 437.89C652.833 436.413 653.644 438.397 655.909 436.023C657.653 435.12 658.441 434.734 659.057 432.402C663.712 414.774 662.403 399.216 654.243 383.347C649.909 374.989 643.463 367.91 635.546 362.814L632.575 374.148C637.086 387.306 636.212 403.942 633.058 417.357C623.536 457.859 573.658 467.709 539.192 475.254C532.396 476.741 523.861 477.536 516.922 478.241C516.581 529.061 513.033 571.083 506.451 621.477C514.97 625.411 527.904 634.032 524.625 645.246C522.381 647.602 522.843 651.191 521.635 652.521C519.624 651.018 518.18 648.279 517.993 645.786C519.205 635.858 513.338 631.805 505.037 628.377C505.206 637.263 504.797 639.986 495.024 642.543C484.607 645.269 472.735 643.544 463.527 637.947C463.355 634.991 463.544 631.934 463.661 628.968C460.501 628.667 459.947 630.05 457.497 629.952C456.39 628.565 456.154 628.012 454.347 627.508C454.925 626.04 457.575 625.496 458.97 623.38C461.19 622.343 462.518 621.851 464.848 621.078C468.303 591.675 471.189 562.208 473.504 532.694C474.742 515.35 475.281 497.877 476.496 480.592C442.701 480.891 418.825 479.738 384.935 475.242C385.777 490.438 386.11 505.261 387.111 520.587C388.559 540.464 390.348 560.314 392.477 580.129C393.373 588.943 395.688 613.455 397.644 621.59C414.203 627.257 424.246 636.946 414.077 654.305C419.742 668.429 423.676 691.816 419.273 707.01C417.174 714.254 398.347 721.556 390.612 724.424C352.705 738.476 304.273 747.587 265.735 731.523C261.576 729.789 256.67 726.977 255.28 722.675C252.171 713.053 253.657 697.776 257.706 688.745C262.656 677.896 271.749 669.484 282.95 665.391C289.586 662.931 299.272 661.11 306.345 661.525C319.596 662.302 328.285 659.475 339.922 652.889C340.161 651.988 339.149 650.049 338.801 649.027C334.883 637.507 341.992 627.347 352.901 623.616C354.486 622.799 355.357 622.551 356.314 621.051C354.789 617.048 352.372 596.719 351.835 591.767C347.487 551.701 342.58 506.617 344.389 466.421C337.402 464.634 330.455 462.697 323.552 460.611C300.081 453.445 266.64 439.743 254.788 417.114C248.269 404.667 245.979 385.771 248.525 371.974C249.461 366.908 251.014 362.14 252.559 357.216C251.629 354.137 251.207 352.466 250.636 349.289C239.591 354.091 227.811 356.983 215.798 357.842C182.025 359.983 149.887 343.598 135.168 312.811C130.004 302.011 125.115 287.763 124.378 275.682C110.868 270.006 107.252 266.005 108.264 251.052C102.887 248.866 90.7923 244.138 86.6753 240.7C77.1313 232.732 68.8903 228.601 57.6553 223.426C51.7263 220.695 45.3583 216.462 39.3043 213.505C24.1783 206.118 4.86532 198.778 11.1913 177.891C6.94032 163.964 10.2753 156.968 24.0833 151.948C26.4083 141.068 29.4103 137.827 40.1793 135.056L41.8693 131.492C34.3153 124.781 34.5153 121.029 41.9833 114.245C40.0133 100.078 43.8093 88.0068 53.6903 77.4658C67.0353 63.2288 87.9823 56.0688 107.126 55.3118C128.293 54.4748 150.725 60.6248 166.455 75.3058C172.877 81.2878 179.401 91.9438 181.214 100.604C181.802 103.413 181.738 110.889 181.79 114.174C193.781 118.541 181.278 127.515 181.459 133.011C184.716 138.847 184.764 140.954 182.162 147.175C183.48 151.619 183.511 154.361 183.48 158.989C187.797 158.804 195.85 158.266 199.502 161.052C208.411 164.724 213.535 173.385 209.203 182.39C205.095 190.93 191.669 194.108 186.761 202.515C181.109 214.253 183.085 222.311 176.037 234.616C185.85 247.118 185.519 256.557 172.405 267.169C170.32 268.856 167.692 270.195 165.661 271.765C169.574 287.36 173.491 301.585 188.206 310.43C208.787 322.799 233.838 313.843 252.537 301.923C252.424 298.143 252.194 294.368 251.846 290.602C245.502 287.001 240.783 282.23 238.746 275.065C234.475 260.04 246.973 255.502 257.895 251.596C247.824 218.996 264.828 179.967 286.7 155.844C289.637 152.605 292.698 149.392 295.747 146.259C277.766 142.906 248.133 134.968 252.112 110.347C253.513 101.682 261.657 93.2138 268.894 88.7988C294.235 74.1078 343.477 75.4398 372.057 76.0248C373.3 73.1868 374.575 70.3348 375.836 67.5108C402.645 7.4698 461.301 2.13381 518.191 15.9828Z" fill="#E12A28"/>
<path d="M199.502 161.052C208.411 164.724 213.535 173.385 209.203 182.39C205.095 190.93 191.669 194.108 186.761 202.515C181.109 214.253 183.085 222.311 176.037 234.616C185.85 247.118 185.519 256.557 172.405 267.169C170.32 268.856 167.692 270.195 165.661 271.765C161.44 268.484 160.738 271.08 158.164 266.648C146.551 270.789 112.726 274.872 114.577 253.88C114.7 252.49 124.274 254.471 125.677 254.541C130.448 254.779 142.411 254.799 144.328 249.423C142.872 247.285 121.234 248.459 115.932 246.411C110.49 244.309 105.286 243.202 99.6113 240.185C91.1233 235.673 83.9403 230.321 75.7983 225.318C63.8953 217.784 47.1973 212.798 39.8013 200.143C38.3403 198.184 36.0283 190.239 37.3743 187.991C45.6503 174.156 67.8283 189.721 75.5743 196.332C80.2733 200.343 83.8903 204.418 87.8063 205.716L88.6253 205.276C91.0733 197.109 72.9003 186.752 68.1333 182.956C75.1563 183.795 80.1253 185.386 86.4343 188.676C88.5253 187.822 93.2083 187.444 95.3723 187.778L95.6963 188.34C98.0853 187.481 124.517 187.087 128.844 188.277C133.246 189.489 139.924 194.65 145.304 194.595C150.004 194.547 152.989 194.976 156.998 196.215C160.677 193.992 163.022 183.81 166.135 181.093C172.313 175.701 176.114 173.303 181.371 166.748C187.438 165.295 189.31 165.339 195.488 166.096L196.256 165.7C198.765 166.134 199.491 167.178 201.691 168.661C203.554 168.353 204.614 167.874 205.386 166.148C204.367 164.299 201.293 163.641 199.502 161.052Z" fill="#FEFEFE"/>
<path d="M199.502 161.052C208.411 164.724 213.535 173.385 209.203 182.39C205.095 190.93 191.669 194.108 186.761 202.515C181.109 214.253 183.085 222.311 176.037 234.616C185.85 247.118 185.519 256.557 172.405 267.169C170.32 268.856 167.692 270.195 165.661 271.765C161.44 268.484 160.738 271.08 158.164 266.648C165.446 264.509 173.334 259.297 175.406 251.519C176.185 248.594 175.824 245.41 174.163 242.856C174.013 242.625 172.659 240.956 172.299 240.646C168.925 241.589 164.32 246.266 160.701 245.538L160.183 244.669C160.547 239.98 168.938 234.276 171.478 229.254C178.222 216.01 173.907 200.361 188.263 190.817C197.609 184.604 213.817 175.353 195.488 166.096L196.256 165.7C198.765 166.134 199.491 167.178 201.691 168.661C203.554 168.353 204.614 167.874 205.386 166.148C204.367 164.299 201.293 163.641 199.502 161.052Z" fill="#D1302D"/>
<path d="M86.4343 188.676C88.5253 187.822 93.2083 187.444 95.3723 187.778L95.6963 188.34C96.7263 190.12 97.1853 190.453 96.6353 192.358L95.5833 192.857C92.1773 192.625 89.2643 190.493 86.4343 188.676Z" fill="#C02A25"/>
<path d="M115.824 197.594C124.514 197.094 133.114 200.174 140.36 204.788C143.163 206.573 147.651 212.66 147.516 216.088L146.896 216.655C144.285 216.484 140.993 213.356 138.638 211.548C125.229 202.989 114.199 203.317 98.9643 203.398C105.402 199.453 108.216 198.529 115.824 197.594Z" fill="#D1302D"/>
<path d="M342.517 658.519C344.668 657.549 345.884 658.211 347.92 659.044C349.844 660.025 351.825 660.891 353.853 661.635C374.625 669.427 389.347 667.477 408.76 658.616C412.462 668.5 414.245 680.257 414.561 690.76C376.543 713.543 301.791 725.172 260.648 705.829C260.822 702.802 261.184 700.475 261.705 697.668C266.689 670.801 305.098 660.04 325.245 676.34C328.542 679.007 334.233 686.242 337.522 687.055C338.897 686.262 338.773 686.243 339.5 684.796C339.762 677.582 329.017 672.281 325.053 667.426L325.395 667.01C336.955 669.224 344.27 684.762 349.634 683.569C354.485 676.991 338.146 665.845 333.856 662.504C340.404 664.64 348.099 669.478 352.771 674.635C354.721 676.787 356.328 679.421 358.547 681.244C360.28 681.673 360.161 681.722 361.841 681.165C363.274 679.822 362.808 680.617 363.256 678.674C361.612 671.228 348.694 662.512 342.517 658.519Z" fill="#FEFEFE"/>
<path d="M398.108 628.516C405.663 631.473 409.266 634.252 411.741 641.983C411.619 642.699 411.471 643.411 411.297 644.116C407.384 660.407 375.418 661.502 362.584 657.619C354.758 655.252 340.823 650.36 344.219 639.637C345.775 634.723 352.553 630.542 357.04 628.645C357.074 630.633 357.009 632.196 357.437 634.138C357.723 642.466 370.146 643.764 376.727 643.96C382.991 644.147 392.4 642.879 397.248 638.598C399.368 636.726 398.349 631.191 398.108 628.516Z" fill="#FEFEFE"/>
<path d="M165.389 123.124L166.213 122.9C171.493 121.439 175.566 118.16 179.874 118.538C183.092 121.347 179.796 123.318 178.51 125.516C174.557 125.369 169.125 124.617 166.234 127.512C164.66 129.087 163.048 135.281 159.857 134.081C151.068 130.775 150.494 127.472 142.818 137.703C139.668 135.554 137.208 133.645 133.581 132.41C128.274 134.076 127.817 137.156 124.252 139.165C117.834 141.543 112.974 134.105 107.041 132.942C101.09 131.775 96.9913 136.765 92.2873 139.955C82.9703 133.089 85.6683 131.123 73.9053 137.596C71.3943 135.054 67.5953 130.406 63.3353 132.23C62.3243 132.663 61.6473 132.849 60.5903 133.122C56.0233 132.107 56.7093 127.229 53.8103 126.001C48.0483 123.561 46.8663 127.789 40.9853 123.998C41.9973 120.761 43.2373 120.02 45.9793 117.936C46.6443 118.327 47.3173 118.705 47.9963 119.07C72.3563 132.276 123.908 131.279 151.075 126.899C155.17 126.239 161.246 124.378 165.389 123.124Z" fill="#FEFEFE"/>
<path d="M40.9853 123.998C46.8663 127.789 48.0483 123.561 53.8103 126.001C56.7093 127.229 56.0233 132.107 60.5903 133.122C61.6473 132.849 62.3243 132.663 63.3353 132.23C67.5953 130.406 71.3943 135.054 73.9053 137.596C85.6683 131.123 82.9703 133.089 92.2873 139.955C96.9913 136.765 101.09 131.775 107.041 132.942C112.974 134.105 117.834 141.543 124.252 139.165C127.817 137.156 128.274 134.076 133.581 132.41C137.208 133.645 139.668 135.554 142.818 137.703C150.494 127.472 151.068 130.775 159.857 134.081C163.048 135.281 164.66 129.087 166.234 127.512C169.125 124.617 174.557 125.369 178.51 125.516C177.966 128.391 176.519 129.27 176.519 131.71L177.022 132.532C173.104 134.704 170.483 135.584 166.209 136.982C164.25 138.971 161.46 139.807 158.68 139.775C151.398 141.712 147.232 142.688 139.579 143.433C136.146 143.767 127.462 144.186 124.593 144.787L123.961 144.788C113.794 144.88 104.574 144.62 94.4123 144.371L93.9503 143.852C94.5003 142.499 95.6233 142.093 96.8533 141.111C107.667 131.493 110.178 140.841 120.312 143.302C124.12 144.227 129.278 140.638 131.662 137.666C130.553 137.605 130.307 137.51 129.364 136.925C127.538 137.92 122.681 141.386 120.894 140.739C117.04 139.342 112.009 138.01 108.179 136.685C108.675 135.972 109.123 136.104 110.351 135.72C109.061 134.451 108.51 134.655 107.04 134.02C100.895 131.365 97.6703 139.993 92.0863 140.517C89.5033 140.76 85.6373 134.366 83.7743 134.336C79.2663 134.264 78.7923 138.154 73.0013 138.118C70.9953 137.275 69.7453 134.623 68.5213 133.823C61.6043 129.644 60.0263 140.363 54.4163 127.833C52.0273 122.495 45.1853 130.426 40.9853 123.998Z" fill="#C02A25"/>
<path d="M133.653 137.464C150.221 149.06 144.563 129.653 158.68 139.775C151.398 141.712 147.232 142.688 139.579 143.433C136.146 143.767 127.462 144.186 124.593 144.787C127.894 142.348 130.527 140.139 133.653 137.464Z" fill="#FEFEFE"/>
<path d="M104.959 136.9C110.755 139.737 117.709 144.652 123.961 144.788C113.794 144.88 104.574 144.62 94.4123 144.371C97.5933 141.882 100.494 139.472 104.005 137.447L104.598 137.1C104.719 137.033 104.839 136.967 104.959 136.9Z" fill="#FEFEFE"/>
<path d="M166.209 136.982C168.806 130.35 169.262 128.697 176.519 131.71L177.022 132.532C173.104 134.704 170.483 135.584 166.209 136.982Z" fill="#FEFEFE"/>
<path d="M181.79 114.174C193.781 118.541 181.278 127.515 181.459 133.011C180.206 132.439 178.463 132.565 177.022 132.532L176.519 131.71C176.519 129.27 177.966 128.391 178.51 125.516C179.796 123.318 183.092 121.347 179.874 118.538C175.566 118.16 171.493 121.439 166.213 122.9L165.389 123.124C165.692 122.877 166.526 121.978 166.721 121.725C170.38 116.956 176.268 115.694 181.79 114.174Z" fill="#D1302D"/>
<path d="M339.922 652.889C340.161 651.988 339.149 650.049 338.801 649.027C334.883 637.507 341.992 627.347 352.901 623.616C352.12 624.438 348.672 627.123 347.581 627.537C340.409 630.263 334.561 647.3 341.816 651.784L342.518 651.507C343.355 651.186 343.678 651.085 344.522 650.868L345.096 651.22C343.851 652.41 343.955 652.352 342.336 652.934L342.226 653.331L342.793 653.442C346.854 654.268 347.702 654.992 347.92 659.044C345.884 658.211 344.668 657.549 342.517 658.519C342.307 657.431 340.512 654.112 339.922 652.889Z" fill="#D1302D"/>
<path d="M356.314 621.051C360.819 626.192 357.435 627.697 357.437 634.138C357.009 632.196 357.074 630.633 357.04 628.645L356.985 627.661C355.813 625.745 354.635 625.008 352.901 623.616C354.486 622.799 355.357 622.551 356.314 621.051Z" fill="#D1302D"/>
<path d="M382.382 106.038C393.367 107.248 440.107 136.502 454.274 143.295C448.421 145.1 433.07 153.005 433.374 159.852C435.292 161.42 439.013 158.788 441.252 157.759C455.239 151.332 472.74 153.777 483.988 164.454C486.098 166.456 489.267 171.609 492.091 171.833L492.735 170.871C493.35 165.912 487.946 157.098 485.093 153.112C504.288 156.973 526.166 156.863 545.234 151.908C568.48 182.718 577.177 214.916 579.009 253.176C579.536 264.179 578.727 275.542 570.695 283.9C569.337 285.313 566.559 287.511 564.684 287.968C543.437 293.138 514.528 295.151 493.176 295.456C485.383 295.682 477.592 295.963 469.803 296.298C465.551 288.838 455.841 277.32 446.3 278.467C443.434 280.832 447.191 283.43 449.083 285.186C445.327 287.424 441.269 289.056 437.084 290.294C402.579 300.499 311.295 279.667 279.362 261.931C271.29 257.448 264.355 251.433 261.938 242.142C257.3 224.317 268.453 194.518 277.712 179.367C300.033 142.846 341.031 115.972 382.382 106.038Z" fill="#FEFEFE"/>
<path d="M355.857 164.036C365.565 163.594 371.966 166.991 376.403 175.857C387.281 197.593 380.203 221.271 373.675 242.681C381.521 243.941 384.534 243.496 392.226 241.9C393.67 241.6 393.469 241.782 394.437 242.536C394.971 246.745 391.61 247.101 388.603 248.459C377.058 253.673 366.892 244.487 355.598 245.128C349.635 245.256 344.755 253.545 345.893 258.928C349.232 274.713 370.597 271.576 381.111 269.952C384.358 269.291 390.114 267.849 392.968 269.641L393.083 270.497C391.406 273.041 388.102 274.198 385.151 275.057C370.081 279.461 345.323 281.197 340.007 261.895C338.033 254.729 341.764 248.722 345.425 243.049C339.073 244.099 327.675 249.639 324.583 248.395L324.382 247.437C326.304 243.775 327.904 243.122 331.362 240.847C325.479 218.079 328.34 171.85 355.857 164.036Z" fill="#E12A28"/>
<path d="M364.31 171.278C382.819 182.813 373.353 224.507 366.971 240.552C362.251 239.072 359.546 238.949 354.647 238.743L354.281 238.491C353.452 236.095 355.436 217.098 355.976 213.846C352.284 211.035 348.135 208.209 344.319 205.55C348.802 203.943 352.996 202.656 357.744 202.201C359.652 194.838 362.171 176.456 364.31 171.278Z" fill="#FEFEFE"/>
<path d="M426.432 249.661C422.307 225.89 422.797 204.075 436.26 183.125C442.507 173.405 456.623 165.822 466.055 173.836C488.385 192.808 476.38 233.349 468.136 254.273C470.449 256.579 474.148 259.523 474.375 262.675C473.491 264.413 474.111 263.762 472.509 264.757C470.272 263.942 467.076 260.5 464.644 258.866C454.447 251.964 441.468 250.639 430.087 255.337C429.008 252.409 430.067 251.859 428.595 249.855L426.432 249.661Z" fill="#E12A28"/>
<path d="M461.105 178.084C464.396 179.948 468.042 185.085 469.247 188.551C476.253 208.687 469.944 231.941 462.305 250.411C458.809 248.868 457.56 248.327 453.864 247.418C452.321 247.135 452.121 247.203 450.773 246.346C449.777 242.431 452.101 226.108 452.677 221.117C448.864 219.227 443.767 215.522 440.381 212.915C444.992 210.895 449.902 209.642 454.916 209.206C456.331 200.665 458.191 185.462 461.105 178.084Z" fill="#FEFEFE"/>
<path d="M355.967 136.604C369.584 135.639 383.428 142.864 388.125 156.494C388.501 157.584 388.245 157.766 387.684 158.598C385.806 158.75 384.798 157.735 382.94 156.551C375.777 151.985 371.264 150.419 363.024 148.904C356.054 148.541 351.331 148.927 344.658 151.623C341.738 152.802 333.343 159.861 331.195 160.047L330.936 159.075C333.429 146.899 344.077 138.577 355.967 136.604Z" fill="#E12A28"/>
<path d="M426.432 249.661L428.595 249.855C430.067 251.859 429.008 252.409 430.087 255.337C427.264 256.828 421.555 260.423 418.497 259.433L418.555 258.387C420.965 254.255 422.887 252.792 426.432 249.661Z" fill="#C02A25"/>
<path d="M257.03 366.377C262.942 371.15 267.657 378.26 275.145 382.126C338.046 414.601 414.163 417.345 483.268 418.578C485.789 420.275 487.685 421.449 490.334 422.936C492.93 421.962 499.148 417.815 500.691 417.681C525.906 415.491 549.937 413.548 574.653 407.155C575.757 420.68 574.575 428.915 563.533 437.869C559.924 440.506 556.083 442.811 552.059 444.757C539.215 451.017 523.314 454.693 508.987 457.026C444.812 467.473 370.435 460.461 308.841 440.034C294.399 435.245 264.53 422.824 258.665 408.961C253.416 396.555 252.511 379.094 257.03 366.377Z" fill="#FEFEFE"/>
<path d="M467.457 16.1328C491.5 15.0738 522.073 22.1688 544.203 32.2048C553.38 37.2348 561.592 54.1068 564.55 63.4858C572.262 87.9438 564.593 118.391 552.96 140.465C539.445 129.525 524.979 119.817 509.734 111.456C468.083 89.1048 426.319 78.3818 379.317 76.3918C396.264 34.9108 423.536 18.5428 467.457 16.1328Z" fill="#FEFEFE"/>
<path d="M258.355 293.534C266.187 294.76 271.681 294.101 279.455 294.491C290.722 295.055 289.821 306.365 295.58 312.889C307.412 326.296 318.955 312.587 331.585 313.059C339.876 313.932 341.062 325.146 345.649 330.65C357.081 344.371 372.079 335.826 383.164 326.678C398.52 339.007 418.581 340.41 436.455 333.423C452.964 346.586 460.512 345.319 473.353 330.992C484.035 319.073 497.833 344.404 510.004 343.408C520.715 342.531 520.882 338.064 527.608 330.86C540.454 320.818 551.423 341.043 564.889 340.249C579.606 339.38 580.066 329.315 580.166 317.138C580.218 316.418 580.287 315.699 580.373 314.982C581.103 309.161 584.867 305.695 590.845 306.833L590.956 307.393C584.72 314.732 580.851 319.768 582.434 330.168C583.534 337.386 586.348 340.88 592.033 344.964C563.24 354.298 532.442 358.899 502.266 360.131C439.906 362.676 356.692 357.179 298.823 333.205C288.571 328.959 277.596 324.234 269.411 316.59C262.905 310.513 258.63 302.519 258.355 293.534Z" fill="#FEFEFE"/>
<path d="M439.981 341.551C441.774 342.212 441.068 341.682 442.219 343.139C442.443 345.346 441.785 345.983 440.181 347.424C434.581 352.526 412.222 356.31 410.365 346.17C411.528 344.468 413.192 345.302 415.491 345.781C423.706 347.492 432.478 344.96 439.981 341.551Z" fill="#D1302D"/>
<path d="M439.981 341.551C441.774 342.212 441.068 341.682 442.219 343.139C442.443 345.346 441.785 345.983 440.181 347.424C438.357 345.356 439.216 343.949 439.981 341.551Z" fill="#C02A25"/>
<path d="M260.444 316.853C266.774 321.266 272.575 328.942 280.506 332.466C359.182 367.422 453.792 372 538.389 363.65C562.37 361.283 582.254 353.709 604.56 347.497C607.929 348.663 608.974 348.979 612.049 350.842C597.859 354.998 580.594 361.963 567.358 368.6C553.605 375.437 541.255 381.657 528.055 389.841C514.745 398.093 503.23 406.728 490.74 416.04C440.936 384.164 367.135 364.263 309.757 350.786C287.653 345.594 263.908 342.478 241.821 337.955C241.87 337.827 241.92 337.7 241.969 337.572L242.232 336.939C245.718 328.397 253.482 322.485 260.444 316.853Z" fill="#FEFEFE"/>
<path d="M105.163 60.1188C107.896 59.7158 113.914 59.7498 116.661 59.9518C127.775 60.7658 136.667 63.4098 144.016 72.2928C148.331 77.5088 150.698 81.3728 152.836 87.7878C153.209 88.9058 155.303 91.5318 155.832 92.9908C158.92 101.51 158.911 111.327 158.243 120.055C144.975 124.713 113.69 125.195 99.4813 124.881C90.0193 124.298 45.5693 121.445 46.1333 108.206C47.4553 77.1898 77.8133 62.8688 105.163 60.1188Z" fill="#FEFEFE"/>
<path d="M135.733 72.6528C139.287 73.6708 142.151 75.9248 140.189 79.9808C135.747 78.9208 133.439 77.3448 135.733 72.6528Z" fill="#C02A25"/>
<path d="M123.437 87.1108C127.93 88.1338 128.93 90.9938 128.107 95.1198C124.01 93.7348 121.606 91.6268 123.437 87.1108Z" fill="#C02A25"/>
<path d="M98.6903 88.1138L100.065 88.8568C101.677 91.9848 100.167 94.1788 97.7853 96.2228C94.0103 92.8848 95.6243 90.9408 98.6903 88.1138Z" fill="#C02A25"/>
<path d="M110.787 68.6278C112.156 68.8558 113.36 69.6628 114.092 70.8408C115.207 72.6698 114.835 74.3858 114.25 76.2538C109.698 75.1908 109.08 72.6268 110.787 68.6278Z" fill="#C02A25"/>
<path d="M88.7143 71.1938L89.9713 72.0098C91.3953 75.3868 89.2413 76.8668 86.6323 78.7898C82.9483 75.3998 85.6993 73.5578 88.7143 71.1938Z" fill="#C02A25"/>
<path d="M348.192 82.1558C411.627 80.6398 468.189 92.5818 522.412 126.345C531.855 132.225 540.05 138.455 548.963 145.058C508.773 151.623 482.874 152.127 445.168 131.38C431.31 123.768 419.152 115.634 404.626 108.539C375.8 94.3288 344.293 84.0298 311.74 86.8748C287.327 89.0088 269.155 94.0438 257.946 116.909L257.583 116.62C257.562 116.178 257.547 115.736 257.536 115.294C257.414 109.424 260.572 104.171 264.534 100.131C282.105 82.2138 324.059 82.5848 348.192 82.1558Z" fill="#FEFEFE"/>
<path d="M559.196 39.7818C562.272 41.0778 567.074 44.3238 569.865 46.1868C593.499 61.9628 617.364 85.7788 620.239 115.486C621.854 132.167 616.967 153.378 611.089 169.282L606.189 166.92C588.877 159.497 574.005 152.275 557.265 143.848C562.638 134.662 566.474 124.302 569.367 114.044C574.492 95.8718 575.488 75.9058 568.669 58.0208C566.292 51.7858 562.511 45.6158 559.196 39.7818Z" fill="#FEFEFE"/>
<path d="M628.191 269.936C631.208 270.771 639.132 277.912 640.91 280.636C649.221 293.369 630.358 295.946 622.596 299.312C620.644 300.159 616.046 304.738 613.476 306.514C607.555 303.977 598.493 300.685 592.679 299.949C575.329 297.753 573.157 311.547 573.496 324.936C573.542 326.761 571.964 331.152 570.215 332.066C558.41 338.233 548.499 321.274 536.695 320.976C523.262 320.548 522.48 328.653 515.425 334.667C507.251 341.634 495.939 327.129 489.545 323.601C486.175 321.742 484.702 321.267 480.829 320.815L480.148 320.74C464.584 321.738 462.65 346.181 443.533 329.855C453.527 320.981 458.276 315.427 462.713 302.869C506.441 303.34 594.088 299.847 628.191 269.936Z" fill="#FEFEFE"/>
<path d="M262.476 257.013C286.438 279.647 332.315 287.983 364.218 294.281C366.973 307.746 368.785 312.16 377.847 322.145C372.038 327.584 363.262 332.587 355.178 330.224C348.126 326.208 348.356 321.908 344.695 315.447C333.166 295.092 317.886 314.748 304.131 311.23C299.902 310.148 296.967 302.659 295.112 299.011C286.745 280.44 272.826 290.529 258.326 286.864C252.51 285.395 241.883 273.329 245.03 266.566C247.236 261.824 257.482 258.879 262.476 257.013Z" fill="#FEFEFE"/>
<path d="M309.346 92.6218C326.836 90.1088 355.583 95.2538 372.263 101.972C349.577 109.491 334.028 116.784 314.247 130.498C309.782 133.905 305.399 137.416 301.1 141.029C289.519 138.892 276.408 136.262 266.721 129.117C265.162 127.967 262.181 124.784 262.486 122.642C265.472 101.675 291.669 94.4668 309.346 92.6218Z" fill="#FEFEFE"/>
<path d="M44.4563 150.863C70.1353 165.796 108.457 165.657 137.523 163.02C144.878 162.352 152.244 160.015 157.548 159.578C158.729 160.42 158.284 159.869 158.632 161.474C157.599 165.113 156.45 166.338 153.672 168.893C139.94 177.841 119.208 179.995 102.285 179.012C86.1263 178.074 59.8803 175.678 46.9853 164.861C44.2753 162.588 44.2653 154.508 44.4563 150.863Z" fill="#FEFEFE"/>
<path d="M412.283 699.836L413.023 700.007L413.527 700.869C413.583 702.428 413.537 703.693 412.786 705.101C410.207 709.933 395.402 715.32 390.244 717.249C350.426 732.14 304.033 741.336 263.802 723.419C261.198 721.417 259.707 718.107 260.445 714.841C261.28 714.093 261.526 713.609 262.817 714.039C272.349 717.209 279.911 719.933 290.057 721.135C332.714 726.19 373.469 717.496 412.283 699.836Z" fill="#FEFEFE"/>
<path d="M443.189 307.577C445.717 307.426 450.628 307.075 452.474 308.71C452.519 309.125 452.626 309.726 452.433 310.098C442.601 329.081 418.017 335.143 399.422 328.47C398.566 327.922 398.906 328.311 398.516 327.211C402.055 320.417 411.072 313.422 418.781 312.541C421.392 314.42 417.374 318.536 418.381 321.442C422.229 321.595 428.124 313.075 432.958 310.874C437.604 308.758 437.876 308.331 443.189 307.577Z" fill="#FEFEFE"/>
<path d="M528.363 15.5038C536.172 14.7628 544.736 16.7538 547.207 25.2188L546.792 25.9078L545.343 25.5288C538.163 22.2428 531.679 20.5368 525.177 17.7188C526.042 16.3198 526.638 16.3908 528.363 15.5038Z" fill="#FEFEFE"/>
<path d="M154.745 182.961C155.86 182.938 155.315 182.803 156.354 183.464C157.321 190.245 149.163 188.86 145.387 187.988L139.425 186.189C145.234 185.304 149.051 184.467 154.745 182.961Z" fill="#FEFEFE"/>
<path d="M80.9063 138.751C83.4693 138.744 85.5493 140.358 86.6773 142.598L86.3023 143.374L84.3813 143.383L76.1893 142.083L80.9063 138.751Z" fill="#FEFEFE"/>
<path d="M636.716 460.338C636.425 458.387 636.024 456.031 636.017 454.074C635.983 443.84 646.164 436.129 655.909 436.023C653.644 438.397 652.833 436.413 652.091 437.89C652.786 439.204 653.312 440.55 654.452 441.441C656.001 441.538 655.862 441.393 657.257 441.936C673.631 441.646 700.388 445.574 702.14 466.297C702.479 470.752 699.253 469.68 701.26 475.08L702.097 475.53C703.241 474.813 704.222 473.949 705.317 473.463C704.514 474.955 703.309 476.254 702.212 477.56C712.285 493.066 710.892 511.905 705.74 528.863C704.682 532.342 701.89 538.389 701.894 541.418C702.326 548.064 705.421 553.054 707.157 559.676C710.041 570.677 705.898 583.588 693.845 586.576C688.146 587.989 681.848 583.775 677.214 580.358C674.904 585.814 672.834 590.156 667.238 593.153C662.779 595.505 657.548 595.916 652.776 594.289C645.376 591.793 642.726 586.738 639.681 580.346C634.135 584.253 628.992 587.255 621.92 586.096C602.395 582.895 604.324 550.584 606.544 536.987C593.863 532.215 586.607 522.32 591.212 508.247C593.543 501.121 599.258 494.506 603.894 488.736C613.909 476.269 622.177 467.382 636.716 460.338Z" fill="#FEFEFE"/>
<path d="M636.716 460.338C636.425 458.387 636.024 456.031 636.017 454.074C635.983 443.84 646.164 436.129 655.909 436.023C653.644 438.397 652.833 436.413 652.091 437.89C652.786 439.204 653.312 440.55 654.452 441.441C656.001 441.538 655.862 441.393 657.257 441.936C652.186 443.121 647.246 444.319 644.271 449.043C643.097 450.908 641.789 455.7 642.956 457.633C646.368 458.168 654.781 454.919 658.278 459.019C657.223 461.451 642.584 464.876 638.553 466.941C621.124 475.87 608.928 492.18 598.387 508.178C593.702 515.29 599.184 530.581 606.721 529.434C609.547 526.016 613.829 507.543 620.384 503.407C622.009 503.369 621.391 503.065 622.43 504.005C621.84 509.168 617.501 518.259 615.733 524.629C611.727 540.165 607.977 561.042 616.512 575.675C617.66 577.644 621.336 579.28 623.543 579.396C629.926 579.73 633.919 577.072 637.507 572.193C636.703 565.472 633.529 538.139 640.629 534.694C642.071 534.95 641.507 534.603 642.392 535.74C643.162 546.569 638.235 587.788 658.209 588.452C666.098 588.714 670.61 581.784 672.931 574.858C670.398 564.283 664.143 550.096 669.641 538.97C670.126 537.989 670.272 538.015 671.038 537.72C676.398 541.748 669.714 569.202 687.767 579.369C696.979 579.767 700.591 576.531 701.218 566.704C701.808 557.457 694.895 549.984 695.399 540.734C695.606 533.867 698.923 527.526 700.546 521.121C705.42 501.879 702.932 483.283 687.547 469.639C686.138 468.39 684.144 466.628 683.481 464.939C683.809 463.49 683.394 464.011 684.583 463.221C689.624 463.168 698.357 471.466 699.914 469.859C700.885 468.856 701.491 467.519 702.14 466.297C702.479 470.752 699.253 469.68 701.26 475.08L702.097 475.53C703.241 474.813 704.222 473.949 705.317 473.463C704.514 474.955 703.309 476.254 702.212 477.56C712.285 493.066 710.892 511.905 705.74 528.863C704.682 532.342 701.89 538.389 701.894 541.418C702.326 548.064 705.421 553.054 707.157 559.676C710.041 570.677 705.898 583.588 693.845 586.576C688.146 587.989 681.848 583.775 677.214 580.358C674.904 585.814 672.834 590.156 667.238 593.153C662.779 595.505 657.548 595.916 652.776 594.289C645.376 591.793 642.726 586.738 639.681 580.346C634.135 584.253 628.992 587.255 621.92 586.096C602.395 582.895 604.324 550.584 606.544 536.987C593.863 532.215 586.607 522.32 591.212 508.247C593.543 501.121 599.258 494.506 603.894 488.736C613.909 476.269 622.177 467.382 636.716 460.338Z" fill="#D1302D"/>
<path d="M448.718 654.223C440.595 642.081 445.252 627.81 458.97 623.38C457.575 625.496 454.925 626.04 454.347 627.508C456.154 628.012 456.39 628.565 457.497 629.952C459.947 630.05 460.501 628.667 463.661 628.968C463.544 631.934 463.355 634.991 463.527 637.947C472.735 643.544 484.607 645.269 495.024 642.543C504.797 639.986 505.206 637.263 505.037 628.377C513.338 631.805 519.205 635.858 517.993 645.786C518.18 648.279 519.624 651.018 521.635 652.521C522.843 651.191 522.381 647.602 524.625 645.246C524.246 648.031 523.554 649.748 522.66 652.387C543.925 666.714 558.461 657.458 580.784 665.729C602.853 673.905 613.887 701.005 606.711 722.954C605.341 727.146 599.026 730.314 594.964 731.79C553.021 747.05 504.771 737.425 464.629 720.984C459.058 718.702 444.309 712.687 442.933 706.522C439.318 690.328 441.477 669.251 448.718 654.223Z" fill="#D1302D"/>
<path d="M505.037 628.377C513.338 631.805 519.205 635.858 517.993 645.786C513.443 655.067 501.872 656.761 492.004 658.522C480.421 660.59 445.483 657.085 452.265 637.852C453.919 633.163 459.191 630.863 463.661 628.968C463.544 631.934 463.355 634.991 463.527 637.947C472.735 643.544 484.607 645.269 495.024 642.543C504.797 639.986 505.206 637.263 505.037 628.377Z" fill="#FEFEFE"/>
<path d="M454.307 658.462C471.856 666.755 484.717 668.059 504.327 662.769C508.269 661.705 513.807 657.751 517.658 656.696L518.997 657.811C519.287 658.694 519.476 658.481 518.705 659.075C513.85 662.832 507.81 665.312 503.711 670.032C501.488 672.593 497.926 677.238 499.912 680.746C503.876 682.323 505.938 678.304 507.976 675.501C509.539 676.346 510.429 676.669 511.739 677.849C510.842 680.182 510.455 681.411 512.228 683.509C516.793 684.195 521.985 674.627 527.295 671.415C532.524 668.253 532.934 667.996 539.016 665.928C535.677 670.154 518.499 679.484 524.051 685.856C524.719 686.1 526.86 686.532 527.265 685.961C541.994 665.15 565.808 663.76 586.691 676.26C596.678 682.238 600.257 693.726 602.146 705.294C594.956 708.789 586.246 711.282 578.412 712.68C542.447 719.099 505.303 713.85 471.227 701.306C463.392 698.422 455.891 694.659 448.379 691.029C447.825 682.038 449.965 666.365 454.307 658.462Z" fill="#FEFEFE"/>
<path d="M448.887 698.992C451.546 699.756 456.58 702.249 459.465 703.405C466.053 706.043 472.734 709.051 479.554 711.206C511.495 721.299 544.491 725.106 577.688 719.84C584.959 718.687 594.531 715.055 601.582 712.719C601.658 716.756 601.784 718.256 600.019 721.845C591.214 727.797 570.358 732.047 559.823 732.667C529.252 734.466 494.754 726.7 466.702 714.562C461.801 712.441 455.365 710.212 451.263 706.804C448.846 704.797 449.011 701.932 448.887 698.992Z" fill="#FEFEFE"/>
<path d="M507.976 675.501C514.099 668.589 520.275 663.943 529.263 661.618C525.654 665.045 521.78 667.144 518.094 670.261C516.5 671.608 513.156 676.008 511.739 677.849C510.429 676.669 509.539 676.346 507.976 675.501Z" fill="#E9CECB"/>
<path d="M514.971 5.7328C518.235 3.7488 520.826 2.2858 524.532 1.1908C532.471 -1.0722 540.984 -0.0842032 548.193 3.9368C556.541 8.5418 559.697 14.5238 562.179 23.2008C565.732 25.2518 569.528 27.2538 573.005 29.3508C600.088 45.6928 626.417 70.9908 634.318 102.424C636.097 109.641 636.889 117.067 636.671 124.498C636.394 137.341 631.08 165.988 624.469 176.925C628.297 183.742 631.552 189.615 634.482 196.941C641.094 213.466 647.78 243.379 643.428 260.423C657.512 272.862 666.022 284.146 652.544 302.311C653.738 303.958 653.883 304.039 654.12 305.99L653.64 306.938C652.153 307.381 650.455 307.814 649.028 308.325L650.149 310.15C652.635 311.634 655.116 313.123 657.614 314.588C682.502 329.182 701.869 353.196 709.022 381.347C714.166 401.905 714.34 423.392 709.53 444.031C719.246 456.495 720.582 465.219 713.528 479.399C720.603 492.176 720.238 513.494 716.096 527.119C714.644 531.896 712.63 537.369 710.88 542.095C715.745 554.92 720.845 566.194 714.809 579.791C711.971 586.339 706.635 591.482 699.987 594.078C693.203 596.713 687.613 596.09 680.893 594.134C667.168 606.826 650.062 609.052 636.718 594.082L636.234 593.532C627.19 595.781 619.544 596.726 611.111 591.608C595.597 582.192 594.086 559.135 596.421 543.275C580.12 531.217 575.946 517.925 584.745 499.219C583.035 497.478 581.755 495.986 581.475 493.483L582.361 492.741C585.039 492.252 585.339 492.874 587.773 493.962C600.196 478.746 609.316 465.309 626.436 455.176L627.302 448.135C623.186 451.972 617.952 456.818 613.18 459.686C587.997 474.819 555.262 482.839 526.504 486.715C526.749 515.897 523.532 549.162 520.859 578.417C519.878 589.163 518.623 605.606 516.594 615.898C529.626 622.305 535.22 633.908 533.956 648.133C548.278 653.667 551.479 651.738 565.916 652.565C584.042 653.603 605.187 665.754 612.423 682.993C619.913 700.837 623.903 730.557 601.239 739.483C558.012 756.507 507.515 747.722 465.421 731.277C456.623 727.762 437.571 720.09 434.43 711.449C433.226 708.138 432.341 703.784 431.831 700.235C431.488 699.905 430.805 698.053 430.582 697.514C428.943 708.141 428.412 715.453 418.202 721.486C407.671 727.709 397.135 731.943 385.627 735.929C351.199 747.853 314.063 753.726 278.077 745.573C268.606 743.429 252.954 738.579 248.139 729.641C242.867 719.856 243.657 701.674 246.866 691.348C251.907 675.128 259.545 667.017 274.021 659.207C273.796 658.458 273.72 658.135 273.56 657.386C275.702 653.823 281.218 653.787 284.659 655.292C289.787 653.953 294.837 652.849 300.157 652.565C310.742 652.001 319.108 653.789 328.664 647.911C327.167 634.153 331.188 626.712 342.153 618.843C341.325 615.87 341.119 610.119 341.501 606.969C341.8 604.511 342.129 604.517 343.834 603.189C343.642 599.482 342.3 591.239 341.798 587.246C340.572 577.364 339.483 567.465 338.53 557.554C335.891 529.703 334.58 501.743 334.602 473.767C275.892 455.93 226.76 435.574 240.597 363.246C235.476 364.535 230.303 365.603 225.091 366.447C212.303 368.44 202.452 368.019 189.811 365.418C147.074 356.626 121.957 323.801 115.735 281.857C103.726 276.368 99.9203 270.088 98.3403 257.222C85.2753 251.89 77.9993 244.763 66.2053 238.165C50.6043 229.437 33.5433 222.484 18.1193 213.316C7.8343 207.203 -2.03869 195.495 0.859308 182.691C2.00031 176.873 -0.833695 170.583 0.253305 163.652C0.754306 160.255 2.02532 157.017 3.97032 154.187C7.83432 148.613 13.1343 146.772 14.6713 144.822C21.3803 136.317 18.1293 136.109 27.9113 129.171C27.6303 127.783 27.3803 126.389 27.1603 124.989C26.2453 118.899 28.5053 115.642 31.8543 111.124C32.4033 95.9708 34.6373 85.3368 44.9413 73.3918C85.5183 26.3548 185.681 39.2838 191.508 109.442C198.738 119.036 197.257 122.696 192.377 132.864C194.554 138.836 193.563 142.942 192.724 149.143C209.482 151.456 221.638 160.96 219.925 179.729C218.478 195.585 202.313 197.748 194.565 208.385C191.807 212.172 191.454 220.927 190.163 225.584C189.343 228.598 188.458 231.093 187.265 234.101C197.377 250.574 190.534 264.824 177.09 275.975C184.273 311.905 216.172 313.803 242.726 296.351C230.261 285.706 221.335 268.496 234.748 253.617C237.94 250.075 242.518 248.091 246.755 246C242.2 221.827 250.868 193.109 263.023 172.184C267.263 164.887 272.275 158.374 277.539 151.817C268.932 147.847 258.622 144.737 252.404 137.603C225.992 107.3 256.945 77.8188 287.67 72.0628C316.366 66.6878 338.145 66.7128 365.651 66.5158C377.305 43.9138 386.308 28.8188 409.334 15.2198C439.369 -2.5172 481.864 -2.8662 514.971 5.7328Z" fill="#FEFEFE"/>
<path d="M394.621 486.323C402.718 486.611 414.911 488.194 423.322 488.876C437.504 490.045 451.734 490.54 465.963 490.359C466.343 515.077 462.805 540.975 461.24 565.64C460.211 581.858 457.602 598.02 456.447 614.301C438.758 622.015 430.365 635.496 438.009 654.653C434.427 666.635 432.824 672.321 431.858 684.896L430.409 685.488C429.575 676.499 427.886 663.994 424.775 655.776C432.029 635.81 424.015 622.374 405.631 614.289C405.058 603.802 402.501 589.765 401.479 578.8C398.721 549.211 394.723 515.952 394.621 486.323Z" fill="#E12A28"/>
<path d="M342.153 618.843C341.325 615.87 341.119 610.119 341.501 606.969C341.8 604.511 342.129 604.517 343.834 603.189L345.902 615.974C344.755 616.906 343.4 618.099 342.153 618.843Z" fill="#C02A25"/>
<path d="M584.745 499.219C583.035 497.478 581.755 495.986 581.475 493.483L582.361 492.741C585.039 492.252 585.339 492.874 587.773 493.962L584.745 499.219Z" fill="#D1302D"/>
<path d="M274.021 659.207C273.796 658.458 273.72 658.135 273.56 657.386C275.702 653.823 281.218 653.787 284.659 655.292C280.29 656.439 278.177 657.37 274.021 659.207Z" fill="#D1302D"/>
<path d="M430.409 685.488L431.858 684.896C431.677 688.258 432.078 698.442 431.831 700.235C431.488 699.905 430.805 698.053 430.582 697.514C430.317 694.4 430.442 688.794 430.409 685.488Z" fill="#9B564C"/>
<path d="M518.191 15.9828C519.675 14.5148 521.432 12.6868 523.262 11.7198C536.417 4.77081 553.558 12.6798 552.696 28.6018C558.625 32.0538 565.31 35.3058 570.946 38.9598C594.055 53.9428 617.544 75.7858 624.84 103.137C626.444 109.154 627.277 115.351 627.319 121.578C627.365 135.202 622.699 159.334 616.577 172.353C615.675 174.271 614.299 175.333 612.553 176.453C627.162 199.561 639.437 231.347 633.442 258.914C633.017 260.783 632.551 262.642 632.045 264.49C638.778 269.171 647.865 274.896 649.41 283.653C650.059 287.148 649.252 290.756 647.177 293.642C644.428 297.477 640.132 299.727 636.032 301.893C636.915 306.966 637.074 309.515 637.008 314.709C641.985 316.184 646.321 318.806 650.768 321.296C690.016 343.268 708.702 386.277 702.564 430.165C701.768 435.86 700.46 441.675 699.241 447.356C704.262 452.342 708.446 457.025 708.729 464.548C708.824 467.063 707.17 471.903 705.317 473.463C704.222 473.949 703.241 474.813 702.097 475.53L701.26 475.08C699.253 469.68 702.479 470.752 702.14 466.297C700.388 445.574 673.631 441.646 657.257 441.936C655.862 441.393 656.001 441.538 654.452 441.441C653.312 440.55 652.786 439.204 652.091 437.89C652.833 436.413 653.644 438.397 655.909 436.023C657.653 435.12 658.441 434.734 659.057 432.402C663.712 414.774 662.403 399.216 654.243 383.347C649.909 374.989 643.463 367.91 635.546 362.814L632.575 374.148C637.086 387.306 636.212 403.942 633.058 417.357C623.536 457.859 573.658 467.709 539.192 475.254C532.396 476.741 523.861 477.536 516.922 478.241C516.581 529.061 513.033 571.083 506.451 621.477C514.97 625.411 527.904 634.032 524.625 645.246C522.381 647.602 522.843 651.191 521.635 652.521C519.624 651.018 518.18 648.279 517.993 645.786C519.205 635.858 513.338 631.805 505.037 628.377C505.206 637.263 504.797 639.986 495.024 642.543C484.607 645.269 472.735 643.544 463.527 637.947C463.355 634.991 463.544 631.934 463.661 628.968C460.501 628.667 459.947 630.05 457.497 629.952C456.39 628.565 456.154 628.012 454.347 627.508C454.925 626.04 457.575 625.496 458.97 623.38C461.19 622.343 462.518 621.851 464.848 621.078C468.303 591.675 471.189 562.208 473.504 532.694C474.742 515.35 475.281 497.877 476.496 480.592C442.701 480.891 418.825 479.738 384.935 475.242C385.777 490.438 386.11 505.261 387.111 520.587C388.559 540.464 390.348 560.314 392.477 580.129C393.373 588.943 395.688 613.455 397.644 621.59C414.203 627.257 424.246 636.946 414.077 654.305C419.742 668.429 423.676 691.816 419.273 707.01C417.174 714.254 398.347 721.556 390.612 724.424C352.705 738.476 304.273 747.587 265.735 731.523C261.576 729.789 256.67 726.977 255.28 722.675C252.171 713.053 253.657 697.776 257.706 688.745C262.656 677.896 271.749 669.484 282.95 665.391C289.586 662.931 299.272 661.11 306.345 661.525C319.596 662.302 328.285 659.475 339.922 652.889C340.161 651.988 339.149 650.049 338.801 649.027C334.883 637.507 341.992 627.347 352.901 623.616C354.486 622.799 355.357 622.551 356.314 621.051C354.789 617.048 352.372 596.719 351.835 591.767C347.487 551.701 342.58 506.617 344.389 466.421C337.402 464.634 330.455 462.697 323.552 460.611C300.081 453.445 266.64 439.743 254.788 417.114C248.269 404.667 245.979 385.771 248.525 371.974C249.461 366.908 251.014 362.14 252.559 357.216C251.629 354.137 251.207 352.466 250.636 349.289C239.591 354.091 227.811 356.983 215.798 357.842C182.025 359.983 149.887 343.598 135.168 312.811C130.004 302.011 125.115 287.763 124.378 275.682C110.868 270.006 107.252 266.005 108.264 251.052C102.887 248.866 90.7923 244.138 86.6753 240.7C77.1313 232.732 68.8903 228.601 57.6553 223.426C51.7263 220.695 45.3583 216.462 39.3043 213.505C24.1783 206.118 4.86532 198.778 11.1913 177.891C6.94032 163.964 10.2753 156.968 24.0833 151.948C26.4083 141.068 29.4103 137.827 40.1793 135.056L41.8693 131.492C34.3153 124.781 34.5153 121.029 41.9833 114.245C40.0133 100.078 43.8093 88.0068 53.6903 77.4658C67.0353 63.2288 87.9823 56.0688 107.126 55.3118C128.293 54.4748 150.725 60.6248 166.455 75.3058C172.877 81.2878 179.401 91.9438 181.214 100.604C181.802 103.413 181.738 110.889 181.79 114.174C193.781 118.541 181.278 127.515 181.459 133.011C184.716 138.847 184.764 140.954 182.162 147.175C183.48 151.619 183.511 154.361 183.48 158.989C187.797 158.804 195.85 158.266 199.502 161.052C208.411 164.724 213.535 173.385 209.203 182.39C205.095 190.93 191.669 194.108 186.761 202.515C181.109 214.253 183.085 222.311 176.037 234.616C185.85 247.118 185.519 256.557 172.405 267.169C170.32 268.856 167.692 270.195 165.661 271.765C169.574 287.36 173.491 301.585 188.206 310.43C208.787 322.799 233.838 313.843 252.537 301.923C252.424 298.143 252.194 294.368 251.846 290.602C245.502 287.001 240.783 282.23 238.746 275.065C234.475 260.04 246.973 255.502 257.895 251.596C247.824 218.996 264.828 179.967 286.7 155.844C289.637 152.605 292.698 149.392 295.747 146.259C277.766 142.906 248.133 134.968 252.112 110.347C253.513 101.682 261.657 93.2138 268.894 88.7988C294.235 74.1078 343.477 75.4398 372.057 76.0248C373.3 73.1868 374.575 70.3348 375.836 67.5108C402.645 7.4698 461.301 2.13381 518.191 15.9828Z" fill="#E12A28"/>
<path d="M199.502 161.052C208.411 164.724 213.535 173.385 209.203 182.39C205.095 190.93 191.669 194.108 186.761 202.515C181.109 214.253 183.085 222.311 176.037 234.616C185.85 247.118 185.519 256.557 172.405 267.169C170.32 268.856 167.692 270.195 165.661 271.765C161.44 268.484 160.738 271.08 158.164 266.648C146.551 270.789 112.726 274.872 114.577 253.88C114.7 252.49 124.274 254.471 125.677 254.541C130.448 254.779 142.411 254.799 144.328 249.423C142.872 247.285 121.234 248.459 115.932 246.411C110.49 244.309 105.286 243.202 99.6113 240.185C91.1233 235.673 83.9403 230.321 75.7983 225.318C63.8953 217.784 47.1973 212.798 39.8013 200.143C38.3403 198.184 36.0283 190.239 37.3743 187.991C45.6503 174.156 67.8283 189.721 75.5743 196.332C80.2733 200.343 83.8903 204.418 87.8063 205.716L88.6253 205.276C91.0733 197.109 72.9003 186.752 68.1333 182.956C75.1563 183.795 80.1253 185.386 86.4343 188.676C88.5253 187.822 93.2083 187.444 95.3723 187.778L95.6963 188.34C98.0853 187.481 124.517 187.087 128.844 188.277C133.246 189.489 139.924 194.65 145.304 194.595C150.004 194.547 152.989 194.976 156.998 196.215C160.677 193.992 163.022 183.81 166.135 181.093C172.313 175.701 176.114 173.303 181.371 166.748C187.438 165.295 189.31 165.339 195.488 166.096L196.256 165.7C198.765 166.134 199.491 167.178 201.691 168.661C203.554 168.353 204.614 167.874 205.386 166.148C204.367 164.299 201.293 163.641 199.502 161.052Z" fill="#FEFEFE"/>
<path d="M199.502 161.052C208.411 164.724 213.535 173.385 209.203 182.39C205.095 190.93 191.669 194.108 186.761 202.515C181.109 214.253 183.085 222.311 176.037 234.616C185.85 247.118 185.519 256.557 172.405 267.169C170.32 268.856 167.692 270.195 165.661 271.765C161.44 268.484 160.738 271.08 158.164 266.648C165.446 264.509 173.334 259.297 175.406 251.519C176.185 248.594 175.824 245.41 174.163 242.856C174.013 242.625 172.659 240.956 172.299 240.646C168.925 241.589 164.32 246.266 160.701 245.538L160.183 244.669C160.547 239.98 168.938 234.276 171.478 229.254C178.222 216.01 173.907 200.361 188.263 190.817C197.609 184.604 213.817 175.353 195.488 166.096L196.256 165.7C198.765 166.134 199.491 167.178 201.691 168.661C203.554 168.353 204.614 167.874 205.386 166.148C204.367 164.299 201.293 163.641 199.502 161.052Z" fill="#D1302D"/>
<path d="M86.4343 188.676C88.5253 187.822 93.2083 187.444 95.3723 187.778L95.6963 188.34C96.7263 190.12 97.1853 190.453 96.6353 192.358L95.5833 192.857C92.1773 192.625 89.2643 190.493 86.4343 188.676Z" fill="#C02A25"/>
<path d="M115.824 197.594C124.514 197.094 133.114 200.174 140.36 204.788C143.163 206.573 147.651 212.66 147.516 216.088L146.896 216.655C144.285 216.484 140.993 213.356 138.638 211.548C125.229 202.989 114.199 203.317 98.9643 203.398C105.402 199.453 108.216 198.529 115.824 197.594Z" fill="#D1302D"/>
<path d="M342.517 658.519C344.668 657.549 345.884 658.211 347.92 659.044C349.844 660.025 351.825 660.891 353.853 661.635C374.625 669.427 389.347 667.477 408.76 658.616C412.462 668.5 414.245 680.257 414.561 690.76C376.543 713.543 301.791 725.172 260.648 705.829C260.822 702.802 261.184 700.475 261.705 697.668C266.689 670.801 305.098 660.04 325.245 676.34C328.542 679.007 334.233 686.242 337.522 687.055C338.897 686.262 338.773 686.243 339.5 684.796C339.762 677.582 329.017 672.281 325.053 667.426L325.395 667.01C336.955 669.224 344.27 684.762 349.634 683.569C354.485 676.991 338.146 665.845 333.856 662.504C340.404 664.64 348.099 669.478 352.771 674.635C354.721 676.787 356.328 679.421 358.547 681.244C360.28 681.673 360.161 681.722 361.841 681.165C363.274 679.822 362.808 680.617 363.256 678.674C361.612 671.228 348.694 662.512 342.517 658.519Z" fill="#FEFEFE"/>
<path d="M398.108 628.516C405.663 631.473 409.266 634.252 411.741 641.983C411.619 642.699 411.471 643.411 411.297 644.116C407.384 660.407 375.418 661.502 362.584 657.619C354.758 655.252 340.823 650.36 344.219 639.637C345.775 634.723 352.553 630.542 357.04 628.645C357.074 630.633 357.009 632.196 357.437 634.138C357.723 642.466 370.146 643.764 376.727 643.96C382.991 644.147 392.4 642.879 397.248 638.598C399.368 636.726 398.349 631.191 398.108 628.516Z" fill="#FEFEFE"/>
<path d="M165.389 123.124L166.213 122.9C171.493 121.439 175.566 118.16 179.874 118.538C183.092 121.347 179.796 123.318 178.51 125.516C174.557 125.369 169.125 124.617 166.234 127.512C164.66 129.087 163.048 135.281 159.857 134.081C151.068 130.775 150.494 127.472 142.818 137.703C139.668 135.554 137.208 133.645 133.581 132.41C128.274 134.076 127.817 137.156 124.252 139.165C117.834 141.543 112.974 134.105 107.041 132.942C101.09 131.775 96.9913 136.765 92.2873 139.955C82.9703 133.089 85.6683 131.123 73.9053 137.596C71.3943 135.054 67.5953 130.406 63.3353 132.23C62.3243 132.663 61.6473 132.849 60.5903 133.122C56.0233 132.107 56.7093 127.229 53.8103 126.001C48.0483 123.561 46.8663 127.789 40.9853 123.998C41.9973 120.761 43.2373 120.02 45.9793 117.936C46.6443 118.327 47.3173 118.705 47.9963 119.07C72.3563 132.276 123.908 131.279 151.075 126.899C155.17 126.239 161.246 124.378 165.389 123.124Z" fill="#FEFEFE"/>
<path d="M40.9853 123.998C46.8663 127.789 48.0483 123.561 53.8103 126.001C56.7093 127.229 56.0233 132.107 60.5903 133.122C61.6473 132.849 62.3243 132.663 63.3353 132.23C67.5953 130.406 71.3943 135.054 73.9053 137.596C85.6683 131.123 82.9703 133.089 92.2873 139.955C96.9913 136.765 101.09 131.775 107.041 132.942C112.974 134.105 117.834 141.543 124.252 139.165C127.817 137.156 128.274 134.076 133.581 132.41C137.208 133.645 139.668 135.554 142.818 137.703C150.494 127.472 151.068 130.775 159.857 134.081C163.048 135.281 164.66 129.087 166.234 127.512C169.125 124.617 174.557 125.369 178.51 125.516C177.966 128.391 176.519 129.27 176.519 131.71L177.022 132.532C173.104 134.704 170.483 135.584 166.209 136.982C164.25 138.971 161.46 139.807 158.68 139.775C151.398 141.712 147.232 142.688 139.579 143.433C136.146 143.767 127.462 144.186 124.593 144.787L123.961 144.788C113.794 144.88 104.574 144.62 94.4123 144.371L93.9503 143.852C94.5003 142.499 95.6233 142.093 96.8533 141.111C107.667 131.493 110.178 140.841 120.312 143.302C124.12 144.227 129.278 140.638 131.662 137.666C130.553 137.605 130.307 137.51 129.364 136.925C127.538 137.92 122.681 141.386 120.894 140.739C117.04 139.342 112.009 138.01 108.179 136.685C108.675 135.972 109.123 136.104 110.351 135.72C109.061 134.451 108.51 134.655 107.04 134.02C100.895 131.365 97.6703 139.993 92.0863 140.517C89.5033 140.76 85.6373 134.366 83.7743 134.336C79.2663 134.264 78.7923 138.154 73.0013 138.118C70.9953 137.275 69.7453 134.623 68.5213 133.823C61.6043 129.644 60.0263 140.363 54.4163 127.833C52.0273 122.495 45.1853 130.426 40.9853 123.998Z" fill="#C02A25"/>
<path d="M133.653 137.464C150.221 149.06 144.563 129.653 158.68 139.775C151.398 141.712 147.232 142.688 139.579 143.433C136.146 143.767 127.462 144.186 124.593 144.787C127.894 142.348 130.527 140.139 133.653 137.464Z" fill="#FEFEFE"/>
<path d="M104.959 136.9C110.755 139.737 117.709 144.652 123.961 144.788C113.794 144.88 104.574 144.62 94.4123 144.371C97.5933 141.882 100.494 139.472 104.005 137.447L104.598 137.1C104.719 137.033 104.839 136.967 104.959 136.9Z" fill="#FEFEFE"/>
<path d="M166.209 136.982C168.806 130.35 169.262 128.697 176.519 131.71L177.022 132.532C173.104 134.704 170.483 135.584 166.209 136.982Z" fill="#FEFEFE"/>
<path d="M181.79 114.174C193.781 118.541 181.278 127.515 181.459 133.011C180.206 132.439 178.463 132.565 177.022 132.532L176.519 131.71C176.519 129.27 177.966 128.391 178.51 125.516C179.796 123.318 183.092 121.347 179.874 118.538C175.566 118.16 171.493 121.439 166.213 122.9L165.389 123.124C165.692 122.877 166.526 121.978 166.721 121.725C170.38 116.956 176.268 115.694 181.79 114.174Z" fill="#D1302D"/>
<path d="M339.922 652.889C340.161 651.988 339.149 650.049 338.801 649.027C334.883 637.507 341.992 627.347 352.901 623.616C352.12 624.438 348.672 627.123 347.581 627.537C340.409 630.263 334.561 647.3 341.816 651.784L342.518 651.507C343.355 651.186 343.678 651.085 344.522 650.868L345.096 651.22C343.851 652.41 343.955 652.352 342.336 652.934L342.226 653.331L342.793 653.442C346.854 654.268 347.702 654.992 347.92 659.044C345.884 658.211 344.668 657.549 342.517 658.519C342.307 657.431 340.512 654.112 339.922 652.889Z" fill="#D1302D"/>
<path d="M356.314 621.051C360.819 626.192 357.435 627.697 357.437 634.138C357.009 632.196 357.074 630.633 357.04 628.645L356.985 627.661C355.813 625.745 354.635 625.008 352.901 623.616C354.486 622.799 355.357 622.551 356.314 621.051Z" fill="#D1302D"/>
<path d="M382.382 106.038C393.367 107.248 440.107 136.502 454.274 143.295C448.421 145.1 433.07 153.005 433.374 159.852C435.292 161.42 439.013 158.788 441.252 157.759C455.239 151.332 472.74 153.777 483.988 164.454C486.098 166.456 489.267 171.609 492.091 171.833L492.735 170.871C493.35 165.912 487.946 157.098 485.093 153.112C504.288 156.973 526.166 156.863 545.234 151.908C568.48 182.718 577.177 214.916 579.009 253.176C579.536 264.179 578.727 275.542 570.695 283.9C569.337 285.313 566.559 287.511 564.684 287.968C543.437 293.138 514.528 295.151 493.176 295.456C485.383 295.682 477.592 295.963 469.803 296.298C465.551 288.838 455.841 277.32 446.3 278.467C443.434 280.832 447.191 283.43 449.083 285.186C445.327 287.424 441.269 289.056 437.084 290.294C402.579 300.499 311.295 279.667 279.362 261.931C271.29 257.448 264.355 251.433 261.938 242.142C257.3 224.317 268.453 194.518 277.712 179.367C300.033 142.846 341.031 115.972 382.382 106.038Z" fill="#FEFEFE"/>
<path d="M355.857 164.036C365.565 163.594 371.966 166.991 376.403 175.857C387.281 197.593 380.203 221.271 373.675 242.681C381.521 243.941 384.534 243.496 392.226 241.9C393.67 241.6 393.469 241.782 394.437 242.536C394.971 246.745 391.61 247.101 388.603 248.459C377.058 253.673 366.892 244.487 355.598 245.128C349.635 245.256 344.755 253.545 345.893 258.928C349.232 274.713 370.597 271.576 381.111 269.952C384.358 269.291 390.114 267.849 392.968 269.641L393.083 270.497C391.406 273.041 388.102 274.198 385.151 275.057C370.081 279.461 345.323 281.197 340.007 261.895C338.033 254.729 341.764 248.722 345.425 243.049C339.073 244.099 327.675 249.639 324.583 248.395L324.382 247.437C326.304 243.775 327.904 243.122 331.362 240.847C325.479 218.079 328.34 171.85 355.857 164.036Z" fill="#E12A28"/>
<path d="M364.31 171.278C382.819 182.813 373.353 224.507 366.971 240.552C362.251 239.072 359.546 238.949 354.647 238.743L354.281 238.491C353.452 236.095 355.436 217.098 355.976 213.846C352.284 211.035 348.135 208.209 344.319 205.55C348.802 203.943 352.996 202.656 357.744 202.201C359.652 194.838 362.171 176.456 364.31 171.278Z" fill="#FEFEFE"/>
<path d="M426.432 249.661C422.307 225.89 422.797 204.075 436.26 183.125C442.507 173.405 456.623 165.822 466.055 173.836C488.385 192.808 476.38 233.349 468.136 254.273C470.449 256.579 474.148 259.523 474.375 262.675C473.491 264.413 474.111 263.762 472.509 264.757C470.272 263.942 467.076 260.5 464.644 258.866C454.447 251.964 441.468 250.639 430.087 255.337C429.008 252.409 430.067 251.859 428.595 249.855L426.432 249.661Z" fill="#E12A28"/>
<path d="M461.105 178.084C464.396 179.948 468.042 185.085 469.247 188.551C476.253 208.687 469.944 231.941 462.305 250.411C458.809 248.868 457.56 248.327 453.864 247.418C452.321 247.135 452.121 247.203 450.773 246.346C449.777 242.431 452.101 226.108 452.677 221.117C448.864 219.227 443.767 215.522 440.381 212.915C444.992 210.895 449.902 209.642 454.916 209.206C456.331 200.665 458.191 185.462 461.105 178.084Z" fill="#FEFEFE"/>
<path d="M355.967 136.604C369.584 135.639 383.428 142.864 388.125 156.494C388.501 157.584 388.245 157.766 387.684 158.598C385.806 158.75 384.798 157.735 382.94 156.551C375.777 151.985 371.264 150.419 363.024 148.904C356.054 148.541 351.331 148.927 344.658 151.623C341.738 152.802 333.343 159.861 331.195 160.047L330.936 159.075C333.429 146.899 344.077 138.577 355.967 136.604Z" fill="#E12A28"/>
<path d="M426.432 249.661L428.595 249.855C430.067 251.859 429.008 252.409 430.087 255.337C427.264 256.828 421.555 260.423 418.497 259.433L418.555 258.387C420.965 254.255 422.887 252.792 426.432 249.661Z" fill="#C02A25"/>
<path d="M257.03 366.377C262.942 371.15 267.657 378.26 275.145 382.126C338.046 414.601 414.163 417.345 483.268 418.578C485.789 420.275 487.685 421.449 490.334 422.936C492.93 421.962 499.148 417.815 500.691 417.681C525.906 415.491 549.937 413.548 574.653 407.155C575.757 420.68 574.575 428.915 563.533 437.869C559.924 440.506 556.083 442.811 552.059 444.757C539.215 451.017 523.314 454.693 508.987 457.026C444.812 467.473 370.435 460.461 308.841 440.034C294.399 435.245 264.53 422.824 258.665 408.961C253.416 396.555 252.511 379.094 257.03 366.377Z" fill="#FEFEFE"/>
<path d="M467.457 16.1328C491.5 15.0738 522.073 22.1688 544.203 32.2048C553.38 37.2348 561.592 54.1068 564.55 63.4858C572.262 87.9438 564.593 118.391 552.96 140.465C539.445 129.525 524.979 119.817 509.734 111.456C468.083 89.1048 426.319 78.3818 379.317 76.3918C396.264 34.9108 423.536 18.5428 467.457 16.1328Z" fill="#FEFEFE"/>
<path d="M258.355 293.534C266.187 294.76 271.681 294.101 279.455 294.491C290.722 295.055 289.821 306.365 295.58 312.889C307.412 326.296 318.955 312.587 331.585 313.059C339.876 313.932 341.062 325.146 345.649 330.65C357.081 344.371 372.079 335.826 383.164 326.678C398.52 339.007 418.581 340.41 436.455 333.423C452.964 346.586 460.512 345.319 473.353 330.992C484.035 319.073 497.833 344.404 510.004 343.408C520.715 342.531 520.882 338.064 527.608 330.86C540.454 320.818 551.423 341.043 564.889 340.249C579.606 339.38 580.066 329.315 580.166 317.138C580.218 316.418 580.287 315.699 580.373 314.982C581.103 309.161 584.867 305.695 590.845 306.833L590.956 307.393C584.72 314.732 580.851 319.768 582.434 330.168C583.534 337.386 586.348 340.88 592.033 344.964C563.24 354.298 532.442 358.899 502.266 360.131C439.906 362.676 356.692 357.179 298.823 333.205C288.571 328.959 277.596 324.234 269.411 316.59C262.905 310.513 258.63 302.519 258.355 293.534Z" fill="#FEFEFE"/>
<path d="M439.981 341.551C441.774 342.212 441.068 341.682 442.219 343.139C442.443 345.346 441.785 345.983 440.181 347.424C434.581 352.526 412.222 356.31 410.365 346.17C411.528 344.468 413.192 345.302 415.491 345.781C423.706 347.492 432.478 344.96 439.981 341.551Z" fill="#D1302D"/>
<path d="M439.981 341.551C441.774 342.212 441.068 341.682 442.219 343.139C442.443 345.346 441.785 345.983 440.181 347.424C438.357 345.356 439.216 343.949 439.981 341.551Z" fill="#C02A25"/>
<path d="M260.444 316.853C266.774 321.266 272.575 328.942 280.506 332.466C359.182 367.422 453.792 372 538.389 363.65C562.37 361.283 582.254 353.709 604.56 347.497C607.929 348.663 608.974 348.979 612.049 350.842C597.859 354.998 580.594 361.963 567.358 368.6C553.605 375.437 541.255 381.657 528.055 389.841C514.745 398.093 503.23 406.728 490.74 416.04C440.936 384.164 367.135 364.263 309.757 350.786C287.653 345.594 263.908 342.478 241.821 337.955C241.87 337.827 241.92 337.7 241.969 337.572L242.232 336.939C245.718 328.397 253.482 322.485 260.444 316.853Z" fill="#FEFEFE"/>
<path d="M105.163 60.1188C107.896 59.7158 113.914 59.7498 116.661 59.9518C127.775 60.7658 136.667 63.4098 144.016 72.2928C148.331 77.5088 150.698 81.3728 152.836 87.7878C153.209 88.9058 155.303 91.5318 155.832 92.9908C158.92 101.51 158.911 111.327 158.243 120.055C144.975 124.713 113.69 125.195 99.4813 124.881C90.0193 124.298 45.5693 121.445 46.1333 108.206C47.4553 77.1898 77.8133 62.8688 105.163 60.1188Z" fill="#FEFEFE"/>
<path d="M135.733 72.6528C139.287 73.6708 142.151 75.9248 140.189 79.9808C135.747 78.9208 133.439 77.3448 135.733 72.6528Z" fill="#C02A25"/>
<path d="M123.437 87.1108C127.93 88.1338 128.93 90.9938 128.107 95.1198C124.01 93.7348 121.606 91.6268 123.437 87.1108Z" fill="#C02A25"/>
<path d="M98.6903 88.1138L100.065 88.8568C101.677 91.9848 100.167 94.1788 97.7853 96.2228C94.0103 92.8848 95.6243 90.9408 98.6903 88.1138Z" fill="#C02A25"/>
<path d="M110.787 68.6278C112.156 68.8558 113.36 69.6628 114.092 70.8408C115.207 72.6698 114.835 74.3858 114.25 76.2538C109.698 75.1908 109.08 72.6268 110.787 68.6278Z" fill="#C02A25"/>
<path d="M88.7143 71.1938L89.9713 72.0098C91.3953 75.3868 89.2413 76.8668 86.6323 78.7898C82.9483 75.3998 85.6993 73.5578 88.7143 71.1938Z" fill="#C02A25"/>
<path d="M348.192 82.1558C411.627 80.6398 468.189 92.5818 522.412 126.345C531.855 132.225 540.05 138.455 548.963 145.058C508.773 151.623 482.874 152.127 445.168 131.38C431.31 123.768 419.152 115.634 404.626 108.539C375.8 94.3288 344.293 84.0298 311.74 86.8748C287.327 89.0088 269.155 94.0438 257.946 116.909L257.583 116.62C257.562 116.178 257.547 115.736 257.536 115.294C257.414 109.424 260.572 104.171 264.534 100.131C282.105 82.2138 324.059 82.5848 348.192 82.1558Z" fill="#FEFEFE"/>
<path d="M559.196 39.7818C562.272 41.0778 567.074 44.3238 569.865 46.1868C593.499 61.9628 617.364 85.7788 620.239 115.486C621.854 132.167 616.967 153.378 611.089 169.282L606.189 166.92C588.877 159.497 574.005 152.275 557.265 143.848C562.638 134.662 566.474 124.302 569.367 114.044C574.492 95.8718 575.488 75.9058 568.669 58.0208C566.292 51.7858 562.511 45.6158 559.196 39.7818Z" fill="#FEFEFE"/>
<path d="M628.191 269.936C631.208 270.771 639.132 277.912 640.91 280.636C649.221 293.369 630.358 295.946 622.596 299.312C620.644 300.159 616.046 304.738 613.476 306.514C607.555 303.977 598.493 300.685 592.679 299.949C575.329 297.753 573.157 311.547 573.496 324.936C573.542 326.761 571.964 331.152 570.215 332.066C558.41 338.233 548.499 321.274 536.695 320.976C523.262 320.548 522.48 328.653 515.425 334.667C507.251 341.634 495.939 327.129 489.545 323.601C486.175 321.742 484.702 321.267 480.829 320.815L480.148 320.74C464.584 321.738 462.65 346.181 443.533 329.855C453.527 320.981 458.276 315.427 462.713 302.869C506.441 303.34 594.088 299.847 628.191 269.936Z" fill="#FEFEFE"/>
<path d="M262.476 257.013C286.438 279.647 332.315 287.983 364.218 294.281C366.973 307.746 368.785 312.16 377.847 322.145C372.038 327.584 363.262 332.587 355.178 330.224C348.126 326.208 348.356 321.908 344.695 315.447C333.166 295.092 317.886 314.748 304.131 311.23C299.902 310.148 296.967 302.659 295.112 299.011C286.745 280.44 272.826 290.529 258.326 286.864C252.51 285.395 241.883 273.329 245.03 266.566C247.236 261.824 257.482 258.879 262.476 257.013Z" fill="#FEFEFE"/>
<path d="M309.346 92.6218C326.836 90.1088 355.583 95.2538 372.263 101.972C349.577 109.491 334.028 116.784 314.247 130.498C309.782 133.905 305.399 137.416 301.1 141.029C289.519 138.892 276.408 136.262 266.721 129.117C265.162 127.967 262.181 124.784 262.486 122.642C265.472 101.675 291.669 94.4668 309.346 92.6218Z" fill="#FEFEFE"/>
<path d="M44.4563 150.863C70.1353 165.796 108.457 165.657 137.523 163.02C144.878 162.352 152.244 160.015 157.548 159.578C158.729 160.42 158.284 159.869 158.632 161.474C157.599 165.113 156.45 166.338 153.672 168.893C139.94 177.841 119.208 179.995 102.285 179.012C86.1263 178.074 59.8803 175.678 46.9853 164.861C44.2753 162.588 44.2653 154.508 44.4563 150.863Z" fill="#FEFEFE"/>
<path d="M412.283 699.836L413.023 700.007L413.527 700.869C413.583 702.428 413.537 703.693 412.786 705.101C410.207 709.933 395.402 715.32 390.244 717.249C350.426 732.14 304.033 741.336 263.802 723.419C261.198 721.417 259.707 718.107 260.445 714.841C261.28 714.093 261.526 713.609 262.817 714.039C272.349 717.209 279.911 719.933 290.057 721.135C332.714 726.19 373.469 717.496 412.283 699.836Z" fill="#FEFEFE"/>
<path d="M443.189 307.577C445.717 307.426 450.628 307.075 452.474 308.71C452.519 309.125 452.626 309.726 452.433 310.098C442.601 329.081 418.017 335.143 399.422 328.47C398.566 327.922 398.906 328.311 398.516 327.211C402.055 320.417 411.072 313.422 418.781 312.541C421.392 314.42 417.374 318.536 418.381 321.442C422.229 321.595 428.124 313.075 432.958 310.874C437.604 308.758 437.876 308.331 443.189 307.577Z" fill="#FEFEFE"/>
<path d="M528.363 15.5038C536.172 14.7628 544.736 16.7538 547.207 25.2188L546.792 25.9078L545.343 25.5288C538.163 22.2428 531.679 20.5368 525.177 17.7188C526.042 16.3198 526.638 16.3908 528.363 15.5038Z" fill="#FEFEFE"/>
<path d="M154.745 182.961C155.86 182.938 155.315 182.803 156.354 183.464C157.321 190.245 149.163 188.86 145.387 187.988L139.425 186.189C145.234 185.304 149.051 184.467 154.745 182.961Z" fill="#FEFEFE"/>
<path d="M80.9063 138.751C83.4693 138.744 85.5493 140.358 86.6773 142.598L86.3023 143.374L84.3813 143.383L76.1893 142.083L80.9063 138.751Z" fill="#FEFEFE"/>
<path d="M636.716 460.338C636.425 458.387 636.024 456.031 636.017 454.074C635.983 443.84 646.164 436.129 655.909 436.023C653.644 438.397 652.833 436.413 652.091 437.89C652.786 439.204 653.312 440.55 654.452 441.441C656.001 441.538 655.862 441.393 657.257 441.936C673.631 441.646 700.388 445.574 702.14 466.297C702.479 470.752 699.253 469.68 701.26 475.08L702.097 475.53C703.241 474.813 704.222 473.949 705.317 473.463C704.514 474.955 703.309 476.254 702.212 477.56C712.285 493.066 710.892 511.905 705.74 528.863C704.682 532.342 701.89 538.389 701.894 541.418C702.326 548.064 705.421 553.054 707.157 559.676C710.041 570.677 705.898 583.588 693.845 586.576C688.146 587.989 681.848 583.775 677.214 580.358C674.904 585.814 672.834 590.156 667.238 593.153C662.779 595.505 657.548 595.916 652.776 594.289C645.376 591.793 642.726 586.738 639.681 580.346C634.135 584.253 628.992 587.255 621.92 586.096C602.395 582.895 604.324 550.584 606.544 536.987C593.863 532.215 586.607 522.32 591.212 508.247C593.543 501.121 599.258 494.506 603.894 488.736C613.909 476.269 622.177 467.382 636.716 460.338Z" fill="#FEFEFE"/>
<path d="M636.716 460.338C636.425 458.387 636.024 456.031 636.017 454.074C635.983 443.84 646.164 436.129 655.909 436.023C653.644 438.397 652.833 436.413 652.091 437.89C652.786 439.204 653.312 440.55 654.452 441.441C656.001 441.538 655.862 441.393 657.257 441.936C652.186 443.121 647.246 444.319 644.271 449.043C643.097 450.908 641.789 455.7 642.956 457.633C646.368 458.168 654.781 454.919 658.278 459.019C657.223 461.451 642.584 464.876 638.553 466.941C621.124 475.87 608.928 492.18 598.387 508.178C593.702 515.29 599.184 530.581 606.721 529.434C609.547 526.016 613.829 507.543 620.384 503.407C622.009 503.369 621.391 503.065 622.43 504.005C621.84 509.168 617.501 518.259 615.733 524.629C611.727 540.165 607.977 561.042 616.512 575.675C617.66 577.644 621.336 579.28 623.543 579.396C629.926 579.73 633.919 577.072 637.507 572.193C636.703 565.472 633.529 538.139 640.629 534.694C642.071 534.95 641.507 534.603 642.392 535.74C643.162 546.569 638.235 587.788 658.209 588.452C666.098 588.714 670.61 581.784 672.931 574.858C670.398 564.283 664.143 550.096 669.641 538.97C670.126 537.989 670.272 538.015 671.038 537.72C676.398 541.748 669.714 569.202 687.767 579.369C696.979 579.767 700.591 576.531 701.218 566.704C701.808 557.457 694.895 549.984 695.399 540.734C695.606 533.867 698.923 527.526 700.546 521.121C705.42 501.879 702.932 483.283 687.547 469.639C686.138 468.39 684.144 466.628 683.481 464.939C683.809 463.49 683.394 464.011 684.583 463.221C689.624 463.168 698.357 471.466 699.914 469.859C700.885 468.856 701.491 467.519 702.14 466.297C702.479 470.752 699.253 469.68 701.26 475.08L702.097 475.53C703.241 474.813 704.222 473.949 705.317 473.463C704.514 474.955 703.309 476.254 702.212 477.56C712.285 493.066 710.892 511.905 705.74 528.863C704.682 532.342 701.89 538.389 701.894 541.418C702.326 548.064 705.421 553.054 707.157 559.676C710.041 570.677 705.898 583.588 693.845 586.576C688.146 587.989 681.848 583.775 677.214 580.358C674.904 585.814 672.834 590.156 667.238 593.153C662.779 595.505 657.548 595.916 652.776 594.289C645.376 591.793 642.726 586.738 639.681 580.346C634.135 584.253 628.992 587.255 621.92 586.096C602.395 582.895 604.324 550.584 606.544 536.987C593.863 532.215 586.607 522.32 591.212 508.247C593.543 501.121 599.258 494.506 603.894 488.736C613.909 476.269 622.177 467.382 636.716 460.338Z" fill="#D1302D"/>
<path d="M448.718 654.223C440.595 642.081 445.252 627.81 458.97 623.38C457.575 625.496 454.925 626.04 454.347 627.508C456.154 628.012 456.39 628.565 457.497 629.952C459.947 630.05 460.501 628.667 463.661 628.968C463.544 631.934 463.355 634.991 463.527 637.947C472.735 643.544 484.607 645.269 495.024 642.543C504.797 639.986 505.206 637.263 505.037 628.377C513.338 631.805 519.205 635.858 517.993 645.786C518.18 648.279 519.624 651.018 521.635 652.521C522.843 651.191 522.381 647.602 524.625 645.246C524.246 648.031 523.554 649.748 522.66 652.387C543.925 666.714 558.461 657.458 580.784 665.729C602.853 673.905 613.887 701.005 606.711 722.954C605.341 727.146 599.026 730.314 594.964 731.79C553.021 747.05 504.771 737.425 464.629 720.984C459.058 718.702 444.309 712.687 442.933 706.522C439.318 690.328 441.477 669.251 448.718 654.223Z" fill="#D1302D"/>
<path d="M505.037 628.377C513.338 631.805 519.205 635.858 517.993 645.786C513.443 655.067 501.872 656.761 492.004 658.522C480.421 660.59 445.483 657.085 452.265 637.852C453.919 633.163 459.191 630.863 463.661 628.968C463.544 631.934 463.355 634.991 463.527 637.947C472.735 643.544 484.607 645.269 495.024 642.543C504.797 639.986 505.206 637.263 505.037 628.377Z" fill="#FEFEFE"/>
<path d="M454.307 658.462C471.856 666.755 484.717 668.059 504.327 662.769C508.269 661.705 513.807 657.751 517.658 656.696L518.997 657.811C519.287 658.694 519.476 658.481 518.705 659.075C513.85 662.832 507.81 665.312 503.711 670.032C501.488 672.593 497.926 677.238 499.912 680.746C503.876 682.323 505.938 678.304 507.976 675.501C509.539 676.346 510.429 676.669 511.739 677.849C510.842 680.182 510.455 681.411 512.228 683.509C516.793 684.195 521.985 674.627 527.295 671.415C532.524 668.253 532.934 667.996 539.016 665.928C535.677 670.154 518.499 679.484 524.051 685.856C524.719 686.1 526.86 686.532 527.265 685.961C541.994 665.15 565.808 663.76 586.691 676.26C596.678 682.238 600.257 693.726 602.146 705.294C594.956 708.789 586.246 711.282 578.412 712.68C542.447 719.099 505.303 713.85 471.227 701.306C463.392 698.422 455.891 694.659 448.379 691.029C447.825 682.038 449.965 666.365 454.307 658.462Z" fill="#FEFEFE"/>
<path d="M448.887 698.992C451.546 699.756 456.58 702.249 459.465 703.405C466.053 706.043 472.734 709.051 479.554 711.206C511.495 721.299 544.491 725.106 577.688 719.84C584.959 718.687 594.531 715.055 601.582 712.719C601.658 716.756 601.784 718.256 600.019 721.845C591.214 727.797 570.358 732.047 559.823 732.667C529.252 734.466 494.754 726.7 466.702 714.562C461.801 712.441 455.365 710.212 451.263 706.804C448.846 704.797 449.011 701.932 448.887 698.992Z" fill="#FEFEFE"/>
<path d="M507.976 675.501C514.099 668.589 520.275 663.943 529.263 661.618C525.654 665.045 521.78 667.144 518.094 670.261C516.5 671.608 513.156 676.008 511.739 677.849C510.429 676.669 509.539 676.346 507.976 675.501Z" fill="#E9CECB"/>
<path d="M645.057 386.28C645.271 386.502 645.485 386.723 645.699 386.944C652.36 398.674 653.904 414.841 650.765 427.275L644.975 428.788C643.016 429.428 640.619 430.535 638.683 431.362C644.769 412.379 645.204 406.028 645.057 386.28Z" fill="#D1302D"/>
</svg>
